<?xml version="1.0" encoding="utf-8" standalone="no"?>
<!DOCTYPE svg PUBLIC "-//W3C//DTD SVG 1.1//EN"
  "http://www.w3.org/Graphics/SVG/1.1/DTD/svg11.dtd">
<svg xmlns:xlink="http://www.w3.org/1999/xlink" width="460.8pt" height="345.6pt" viewBox="0 0 460.8 345.6" xmlns="http://www.w3.org/2000/svg" version="1.1">
 <metadata>
  <rdf:RDF xmlns:dc="http://purl.org/dc/elements/1.1/" xmlns:cc="http://creativecommons.org/ns#" xmlns:rdf="http://www.w3.org/1999/02/22-rdf-syntax-ns#">
   <cc:Work>
    <dc:type rdf:resource="http://purl.org/dc/dcmitype/StillImage"/>
    <dc:date>2023-08-16T20:54:29.113503</dc:date>
    <dc:format>image/svg+xml</dc:format>
    <dc:creator>
     <cc:Agent>
      <dc:title>Matplotlib v3.7.2, https://matplotlib.org/</dc:title>
     </cc:Agent>
    </dc:creator>
   </cc:Work>
  </rdf:RDF>
 </metadata>
 <defs>
  <style type="text/css">*{stroke-linejoin: round; stroke-linecap: butt}</style>
 </defs>
 <g id="figure_1">
  <g id="patch_1">
   <path d="M 0 345.6 
L 460.8 345.6 
L 460.8 0 
L 0 0 
z
" style="fill: #ffffff"/>
  </g>
  <g id="axes_1">
   <g id="patch_2">
    <path d="M 57.6 307.584 
L 414.72 307.584 
L 414.72 41.472 
L 57.6 41.472 
z
" style="fill: #ffffff"/>
   </g>
   <g id="matplotlib.axis_1">
    <g id="xtick_1">
     <g id="line2d_1">
      <defs>
       <path id="m9d86f202b3" d="M 0 0 
L 0 3.5 
" style="stroke: #000000; stroke-width: 0.8"/>
      </defs>
      <g>
       <use xlink:href="#m9d86f202b3" x="57.6" y="307.584" style="stroke: #000000; stroke-width: 0.8"/>
      </g>
     </g>
     <g id="text_1">
      <!-- $\Gamma$ -->
      <g transform="translate(54.8 322.182437) scale(0.1 -0.1)">
       <defs>
        <path id="DejaVuSans-393" d="M 628 0 
L 628 4666 
L 3531 4666 
L 3531 4134 
L 1259 4134 
L 1259 0 
L 628 0 
z
" transform="scale(0.015625)"/>
       </defs>
       <use xlink:href="#DejaVuSans-393" transform="translate(0 0.09375)"/>
      </g>
     </g>
    </g>
    <g id="xtick_2">
     <g id="line2d_2">
      <g>
       <use xlink:href="#m9d86f202b3" x="107.572962" y="307.584" style="stroke: #000000; stroke-width: 0.8"/>
      </g>
     </g>
     <g id="text_2">
      <!-- X -->
      <g transform="translate(104.147962 322.182437) scale(0.1 -0.1)">
       <defs>
        <path id="DejaVuSans-58" d="M 403 4666 
L 1081 4666 
L 2241 2931 
L 3406 4666 
L 4084 4666 
L 2584 2425 
L 4184 0 
L 3506 0 
L 2194 1984 
L 872 0 
L 191 0 
L 1856 2491 
L 403 4666 
z
" transform="scale(0.015625)"/>
       </defs>
       <use xlink:href="#DejaVuSans-58"/>
      </g>
     </g>
    </g>
    <g id="xtick_3">
     <g id="line2d_3">
      <g>
       <use xlink:href="#m9d86f202b3" x="157.545925" y="307.584" style="stroke: #000000; stroke-width: 0.8"/>
      </g>
     </g>
     <g id="text_3">
      <!-- M -->
      <g transform="translate(153.231862 322.182437) scale(0.1 -0.1)">
       <defs>
        <path id="DejaVuSans-4d" d="M 628 4666 
L 1569 4666 
L 2759 1491 
L 3956 4666 
L 4897 4666 
L 4897 0 
L 4281 0 
L 4281 4097 
L 3078 897 
L 2444 897 
L 1241 4097 
L 1241 0 
L 628 0 
L 628 4666 
z
" transform="scale(0.015625)"/>
       </defs>
       <use xlink:href="#DejaVuSans-4d"/>
      </g>
     </g>
    </g>
    <g id="xtick_4">
     <g id="line2d_4">
      <g>
       <use xlink:href="#m9d86f202b3" x="207.518887" y="307.584" style="stroke: #000000; stroke-width: 0.8"/>
      </g>
     </g>
     <g id="text_4">
      <!-- R -->
      <g transform="translate(204.044668 322.182437) scale(0.1 -0.1)">
       <defs>
        <path id="DejaVuSans-52" d="M 2841 2188 
Q 3044 2119 3236 1894 
Q 3428 1669 3622 1275 
L 4263 0 
L 3584 0 
L 2988 1197 
Q 2756 1666 2539 1819 
Q 2322 1972 1947 1972 
L 1259 1972 
L 1259 0 
L 628 0 
L 628 4666 
L 2053 4666 
Q 2853 4666 3247 4331 
Q 3641 3997 3641 3322 
Q 3641 2881 3436 2590 
Q 3231 2300 2841 2188 
z
M 1259 4147 
L 1259 2491 
L 2053 2491 
Q 2509 2491 2742 2702 
Q 2975 2913 2975 3322 
Q 2975 3731 2742 3939 
Q 2509 4147 2053 4147 
L 1259 4147 
z
" transform="scale(0.015625)"/>
       </defs>
       <use xlink:href="#DejaVuSans-52"/>
      </g>
     </g>
    </g>
    <g id="xtick_5">
     <g id="line2d_5">
      <g>
       <use xlink:href="#m9d86f202b3" x="278.191328" y="307.584" style="stroke: #000000; stroke-width: 0.8"/>
      </g>
     </g>
     <g id="text_5">
      <!-- X -->
      <g transform="translate(274.766328 322.182437) scale(0.1 -0.1)">
       <use xlink:href="#DejaVuSans-58"/>
      </g>
     </g>
    </g>
    <g id="xtick_6">
     <g id="line2d_6">
      <g>
       <use xlink:href="#m9d86f202b3" x="328.16429" y="307.584" style="stroke: #000000; stroke-width: 0.8"/>
      </g>
     </g>
     <g id="text_6">
      <!-- $\Gamma$ -->
      <g transform="translate(325.36429 322.182437) scale(0.1 -0.1)">
       <use xlink:href="#DejaVuSans-393" transform="translate(0 0.09375)"/>
      </g>
     </g>
    </g>
    <g id="xtick_7">
     <g id="line2d_7">
      <g>
       <use xlink:href="#m9d86f202b3" x="414.72" y="307.584" style="stroke: #000000; stroke-width: 0.8"/>
      </g>
     </g>
     <g id="text_7">
      <!-- R -->
      <g transform="translate(411.245781 322.182437) scale(0.1 -0.1)">
       <use xlink:href="#DejaVuSans-52"/>
      </g>
     </g>
    </g>
   </g>
   <g id="matplotlib.axis_2">
    <g id="ytick_1">
     <g id="line2d_8">
      <defs>
       <path id="md4eea9e060" d="M 0 0 
L -3.5 0 
" style="stroke: #000000; stroke-width: 0.8"/>
      </defs>
      <g>
       <use xlink:href="#md4eea9e060" x="57.6" y="307.584" style="stroke: #000000; stroke-width: 0.8"/>
      </g>
     </g>
     <g id="text_8">
      <!-- 0.00 -->
      <g transform="translate(28.334375 311.383219) scale(0.1 -0.1)">
       <defs>
        <path id="DejaVuSans-30" d="M 2034 4250 
Q 1547 4250 1301 3770 
Q 1056 3291 1056 2328 
Q 1056 1369 1301 889 
Q 1547 409 2034 409 
Q 2525 409 2770 889 
Q 3016 1369 3016 2328 
Q 3016 3291 2770 3770 
Q 2525 4250 2034 4250 
z
M 2034 4750 
Q 2819 4750 3233 4129 
Q 3647 3509 3647 2328 
Q 3647 1150 3233 529 
Q 2819 -91 2034 -91 
Q 1250 -91 836 529 
Q 422 1150 422 2328 
Q 422 3509 836 4129 
Q 1250 4750 2034 4750 
z
" transform="scale(0.015625)"/>
        <path id="DejaVuSans-2e" d="M 684 794 
L 1344 794 
L 1344 0 
L 684 0 
L 684 794 
z
" transform="scale(0.015625)"/>
       </defs>
       <use xlink:href="#DejaVuSans-30"/>
       <use xlink:href="#DejaVuSans-2e" x="63.623047"/>
       <use xlink:href="#DejaVuSans-30" x="95.410156"/>
       <use xlink:href="#DejaVuSans-30" x="159.033203"/>
      </g>
     </g>
    </g>
    <g id="ytick_2">
     <g id="line2d_9">
      <g>
       <use xlink:href="#md4eea9e060" x="57.6" y="254.3616" style="stroke: #000000; stroke-width: 0.8"/>
      </g>
     </g>
     <g id="text_9">
      <!-- 0.02 -->
      <g transform="translate(28.334375 258.160819) scale(0.1 -0.1)">
       <defs>
        <path id="DejaVuSans-32" d="M 1228 531 
L 3431 531 
L 3431 0 
L 469 0 
L 469 531 
Q 828 903 1448 1529 
Q 2069 2156 2228 2338 
Q 2531 2678 2651 2914 
Q 2772 3150 2772 3378 
Q 2772 3750 2511 3984 
Q 2250 4219 1831 4219 
Q 1534 4219 1204 4116 
Q 875 4013 500 3803 
L 500 4441 
Q 881 4594 1212 4672 
Q 1544 4750 1819 4750 
Q 2544 4750 2975 4387 
Q 3406 4025 3406 3419 
Q 3406 3131 3298 2873 
Q 3191 2616 2906 2266 
Q 2828 2175 2409 1742 
Q 1991 1309 1228 531 
z
" transform="scale(0.015625)"/>
       </defs>
       <use xlink:href="#DejaVuSans-30"/>
       <use xlink:href="#DejaVuSans-2e" x="63.623047"/>
       <use xlink:href="#DejaVuSans-30" x="95.410156"/>
       <use xlink:href="#DejaVuSans-32" x="159.033203"/>
      </g>
     </g>
    </g>
    <g id="ytick_3">
     <g id="line2d_10">
      <g>
       <use xlink:href="#md4eea9e060" x="57.6" y="201.1392" style="stroke: #000000; stroke-width: 0.8"/>
      </g>
     </g>
     <g id="text_10">
      <!-- 0.04 -->
      <g transform="translate(28.334375 204.938419) scale(0.1 -0.1)">
       <defs>
        <path id="DejaVuSans-34" d="M 2419 4116 
L 825 1625 
L 2419 1625 
L 2419 4116 
z
M 2253 4666 
L 3047 4666 
L 3047 1625 
L 3713 1625 
L 3713 1100 
L 3047 1100 
L 3047 0 
L 2419 0 
L 2419 1100 
L 313 1100 
L 313 1709 
L 2253 4666 
z
" transform="scale(0.015625)"/>
       </defs>
       <use xlink:href="#DejaVuSans-30"/>
       <use xlink:href="#DejaVuSans-2e" x="63.623047"/>
       <use xlink:href="#DejaVuSans-30" x="95.410156"/>
       <use xlink:href="#DejaVuSans-34" x="159.033203"/>
      </g>
     </g>
    </g>
    <g id="ytick_4">
     <g id="line2d_11">
      <g>
       <use xlink:href="#md4eea9e060" x="57.6" y="147.9168" style="stroke: #000000; stroke-width: 0.8"/>
      </g>
     </g>
     <g id="text_11">
      <!-- 0.06 -->
      <g transform="translate(28.334375 151.716019) scale(0.1 -0.1)">
       <defs>
        <path id="DejaVuSans-36" d="M 2113 2584 
Q 1688 2584 1439 2293 
Q 1191 2003 1191 1497 
Q 1191 994 1439 701 
Q 1688 409 2113 409 
Q 2538 409 2786 701 
Q 3034 994 3034 1497 
Q 3034 2003 2786 2293 
Q 2538 2584 2113 2584 
z
M 3366 4563 
L 3366 3988 
Q 3128 4100 2886 4159 
Q 2644 4219 2406 4219 
Q 1781 4219 1451 3797 
Q 1122 3375 1075 2522 
Q 1259 2794 1537 2939 
Q 1816 3084 2150 3084 
Q 2853 3084 3261 2657 
Q 3669 2231 3669 1497 
Q 3669 778 3244 343 
Q 2819 -91 2113 -91 
Q 1303 -91 875 529 
Q 447 1150 447 2328 
Q 447 3434 972 4092 
Q 1497 4750 2381 4750 
Q 2619 4750 2861 4703 
Q 3103 4656 3366 4563 
z
" transform="scale(0.015625)"/>
       </defs>
       <use xlink:href="#DejaVuSans-30"/>
       <use xlink:href="#DejaVuSans-2e" x="63.623047"/>
       <use xlink:href="#DejaVuSans-30" x="95.410156"/>
       <use xlink:href="#DejaVuSans-36" x="159.033203"/>
      </g>
     </g>
    </g>
    <g id="ytick_5">
     <g id="line2d_12">
      <g>
       <use xlink:href="#md4eea9e060" x="57.6" y="94.6944" style="stroke: #000000; stroke-width: 0.8"/>
      </g>
     </g>
     <g id="text_12">
      <!-- 0.08 -->
      <g transform="translate(28.334375 98.493619) scale(0.1 -0.1)">
       <defs>
        <path id="DejaVuSans-38" d="M 2034 2216 
Q 1584 2216 1326 1975 
Q 1069 1734 1069 1313 
Q 1069 891 1326 650 
Q 1584 409 2034 409 
Q 2484 409 2743 651 
Q 3003 894 3003 1313 
Q 3003 1734 2745 1975 
Q 2488 2216 2034 2216 
z
M 1403 2484 
Q 997 2584 770 2862 
Q 544 3141 544 3541 
Q 544 4100 942 4425 
Q 1341 4750 2034 4750 
Q 2731 4750 3128 4425 
Q 3525 4100 3525 3541 
Q 3525 3141 3298 2862 
Q 3072 2584 2669 2484 
Q 3125 2378 3379 2068 
Q 3634 1759 3634 1313 
Q 3634 634 3220 271 
Q 2806 -91 2034 -91 
Q 1263 -91 848 271 
Q 434 634 434 1313 
Q 434 1759 690 2068 
Q 947 2378 1403 2484 
z
M 1172 3481 
Q 1172 3119 1398 2916 
Q 1625 2713 2034 2713 
Q 2441 2713 2670 2916 
Q 2900 3119 2900 3481 
Q 2900 3844 2670 4047 
Q 2441 4250 2034 4250 
Q 1625 4250 1398 4047 
Q 1172 3844 1172 3481 
z
" transform="scale(0.015625)"/>
       </defs>
       <use xlink:href="#DejaVuSans-30"/>
       <use xlink:href="#DejaVuSans-2e" x="63.623047"/>
       <use xlink:href="#DejaVuSans-30" x="95.410156"/>
       <use xlink:href="#DejaVuSans-38" x="159.033203"/>
      </g>
     </g>
    </g>
    <g id="ytick_6">
     <g id="line2d_13">
      <g>
       <use xlink:href="#md4eea9e060" x="57.6" y="41.472" style="stroke: #000000; stroke-width: 0.8"/>
      </g>
     </g>
     <g id="text_13">
      <!-- 0.10 -->
      <g transform="translate(28.334375 45.271219) scale(0.1 -0.1)">
       <defs>
        <path id="DejaVuSans-31" d="M 794 531 
L 1825 531 
L 1825 4091 
L 703 3866 
L 703 4441 
L 1819 4666 
L 2450 4666 
L 2450 531 
L 3481 531 
L 3481 0 
L 794 0 
L 794 531 
z
" transform="scale(0.015625)"/>
       </defs>
       <use xlink:href="#DejaVuSans-30"/>
       <use xlink:href="#DejaVuSans-2e" x="63.623047"/>
       <use xlink:href="#DejaVuSans-31" x="95.410156"/>
       <use xlink:href="#DejaVuSans-30" x="159.033203"/>
      </g>
     </g>
    </g>
    <g id="text_14">
     <!-- Energy (eV) -->
     <g transform="translate(22.254687 204.02175) rotate(-90) scale(0.1 -0.1)">
      <defs>
       <path id="DejaVuSans-45" d="M 628 4666 
L 3578 4666 
L 3578 4134 
L 1259 4134 
L 1259 2753 
L 3481 2753 
L 3481 2222 
L 1259 2222 
L 1259 531 
L 3634 531 
L 3634 0 
L 628 0 
L 628 4666 
z
" transform="scale(0.015625)"/>
       <path id="DejaVuSans-6e" d="M 3513 2113 
L 3513 0 
L 2938 0 
L 2938 2094 
Q 2938 2591 2744 2837 
Q 2550 3084 2163 3084 
Q 1697 3084 1428 2787 
Q 1159 2491 1159 1978 
L 1159 0 
L 581 0 
L 581 3500 
L 1159 3500 
L 1159 2956 
Q 1366 3272 1645 3428 
Q 1925 3584 2291 3584 
Q 2894 3584 3203 3211 
Q 3513 2838 3513 2113 
z
" transform="scale(0.015625)"/>
       <path id="DejaVuSans-65" d="M 3597 1894 
L 3597 1613 
L 953 1613 
Q 991 1019 1311 708 
Q 1631 397 2203 397 
Q 2534 397 2845 478 
Q 3156 559 3463 722 
L 3463 178 
Q 3153 47 2828 -22 
Q 2503 -91 2169 -91 
Q 1331 -91 842 396 
Q 353 884 353 1716 
Q 353 2575 817 3079 
Q 1281 3584 2069 3584 
Q 2775 3584 3186 3129 
Q 3597 2675 3597 1894 
z
M 3022 2063 
Q 3016 2534 2758 2815 
Q 2500 3097 2075 3097 
Q 1594 3097 1305 2825 
Q 1016 2553 972 2059 
L 3022 2063 
z
" transform="scale(0.015625)"/>
       <path id="DejaVuSans-72" d="M 2631 2963 
Q 2534 3019 2420 3045 
Q 2306 3072 2169 3072 
Q 1681 3072 1420 2755 
Q 1159 2438 1159 1844 
L 1159 0 
L 581 0 
L 581 3500 
L 1159 3500 
L 1159 2956 
Q 1341 3275 1631 3429 
Q 1922 3584 2338 3584 
Q 2397 3584 2469 3576 
Q 2541 3569 2628 3553 
L 2631 2963 
z
" transform="scale(0.015625)"/>
       <path id="DejaVuSans-67" d="M 2906 1791 
Q 2906 2416 2648 2759 
Q 2391 3103 1925 3103 
Q 1463 3103 1205 2759 
Q 947 2416 947 1791 
Q 947 1169 1205 825 
Q 1463 481 1925 481 
Q 2391 481 2648 825 
Q 2906 1169 2906 1791 
z
M 3481 434 
Q 3481 -459 3084 -895 
Q 2688 -1331 1869 -1331 
Q 1566 -1331 1297 -1286 
Q 1028 -1241 775 -1147 
L 775 -588 
Q 1028 -725 1275 -790 
Q 1522 -856 1778 -856 
Q 2344 -856 2625 -561 
Q 2906 -266 2906 331 
L 2906 616 
Q 2728 306 2450 153 
Q 2172 0 1784 0 
Q 1141 0 747 490 
Q 353 981 353 1791 
Q 353 2603 747 3093 
Q 1141 3584 1784 3584 
Q 2172 3584 2450 3431 
Q 2728 3278 2906 2969 
L 2906 3500 
L 3481 3500 
L 3481 434 
z
" transform="scale(0.015625)"/>
       <path id="DejaVuSans-79" d="M 2059 -325 
Q 1816 -950 1584 -1140 
Q 1353 -1331 966 -1331 
L 506 -1331 
L 506 -850 
L 844 -850 
Q 1081 -850 1212 -737 
Q 1344 -625 1503 -206 
L 1606 56 
L 191 3500 
L 800 3500 
L 1894 763 
L 2988 3500 
L 3597 3500 
L 2059 -325 
z
" transform="scale(0.015625)"/>
       <path id="DejaVuSans-20" transform="scale(0.015625)"/>
       <path id="DejaVuSans-28" d="M 1984 4856 
Q 1566 4138 1362 3434 
Q 1159 2731 1159 2009 
Q 1159 1288 1364 580 
Q 1569 -128 1984 -844 
L 1484 -844 
Q 1016 -109 783 600 
Q 550 1309 550 2009 
Q 550 2706 781 3412 
Q 1013 4119 1484 4856 
L 1984 4856 
z
" transform="scale(0.015625)"/>
       <path id="DejaVuSans-56" d="M 1831 0 
L 50 4666 
L 709 4666 
L 2188 738 
L 3669 4666 
L 4325 4666 
L 2547 0 
L 1831 0 
z
" transform="scale(0.015625)"/>
       <path id="DejaVuSans-29" d="M 513 4856 
L 1013 4856 
Q 1481 4119 1714 3412 
Q 1947 2706 1947 2009 
Q 1947 1309 1714 600 
Q 1481 -109 1013 -844 
L 513 -844 
Q 928 -128 1133 580 
Q 1338 1288 1338 2009 
Q 1338 2731 1133 3434 
Q 928 4138 513 4856 
z
" transform="scale(0.015625)"/>
      </defs>
      <use xlink:href="#DejaVuSans-45"/>
      <use xlink:href="#DejaVuSans-6e" x="63.183594"/>
      <use xlink:href="#DejaVuSans-65" x="126.5625"/>
      <use xlink:href="#DejaVuSans-72" x="188.085938"/>
      <use xlink:href="#DejaVuSans-67" x="227.449219"/>
      <use xlink:href="#DejaVuSans-79" x="290.925781"/>
      <use xlink:href="#DejaVuSans-20" x="350.105469"/>
      <use xlink:href="#DejaVuSans-28" x="381.892578"/>
      <use xlink:href="#DejaVuSans-65" x="420.90625"/>
      <use xlink:href="#DejaVuSans-56" x="482.429688"/>
      <use xlink:href="#DejaVuSans-29" x="550.837891"/>
     </g>
    </g>
   </g>
   <g id="line2d_14">
    <path d="M 57.6 307.584 
L 61.444074 305.836306 
L 65.288148 300.289922 
L 69.132222 291.962421 
L 72.976296 281.971545 
L 76.82037 271.45496 
L 80.664444 265.531278 
L 84.508518 261.625314 
L 88.352592 258.744271 
L 92.196666 256.624353 
L 96.04074 255.098025 
L 99.884814 254.063761 
L 103.728888 253.463034 
L 107.572962 253.265855 
L 111.417036 253.069378 
L 115.26111 252.493671 
L 119.105184 251.576787 
L 122.949258 250.372675 
L 126.793332 248.939888 
L 130.637406 247.330884 
L 134.48148 245.585853 
L 138.325554 243.735723 
L 142.169629 241.820105 
L 146.013703 239.92356 
L 149.857777 238.219732 
L 153.701851 236.986047 
L 157.545925 236.527419 
L 161.389999 236.413547 
L 165.234073 236.079407 
L 169.078147 235.546796 
L 172.922221 234.850023 
L 176.766295 234.033147 
L 180.610369 233.146618 
L 184.454443 232.243694 
L 188.298517 231.376977 
L 192.142591 230.59532 
L 195.986665 229.94128 
L 199.830739 229.449197 
L 203.674813 229.143972 
L 207.518887 229.040561 
L 211.052509 229.43329 
L 214.586131 230.594046 
L 218.119753 232.465903 
L 221.653375 234.943079 
L 225.186997 237.86625 
L 228.720619 241.030522 
L 232.254241 244.207381 
L 235.787863 247.174724 
L 239.321485 249.746188 
L 242.855107 251.793253 
L 246.388729 253.257217 
L 249.922352 254.150639 
L 253.455974 254.548707 
L 256.989596 254.571452 
L 260.523218 254.358816 
L 264.05684 254.043257 
L 267.590462 253.727653 
L 271.124084 253.476061 
L 274.657706 253.318831 
L 278.191328 253.265855 
L 281.760825 253.435783 
L 285.330323 253.952359 
L 288.89982 254.8375 
L 292.469317 256.133132 
L 296.038815 257.910215 
L 299.608312 260.283036 
L 303.177809 263.429149 
L 306.747306 267.609187 
L 310.316804 275.205669 
L 313.886301 284.927508 
L 317.455798 293.926868 
L 321.025296 301.276561 
L 324.594793 306.100382 
L 328.16429 307.584 
L 331.493356 306.862899 
L 334.822422 304.212663 
L 338.151488 299.881264 
L 341.480553 294.208696 
L 344.809619 287.733244 
L 348.138685 281.042774 
L 351.467751 274.679651 
L 354.796816 269.08903 
L 358.125882 264.493686 
L 361.454948 260.866542 
L 364.784014 258.0934 
L 368.113079 256.042735 
L 371.442145 254.530607 
L 374.771211 253.303837 
L 378.100277 252.082495 
L 381.429342 250.627101 
L 384.758408 248.785882 
L 388.087474 246.510349 
L 391.41654 243.848986 
L 394.745605 240.929832 
L 398.074671 237.937761 
L 401.403737 235.088767 
L 404.732803 232.602452 
L 408.061868 230.674955 
L 411.390934 229.456847 
L 414.72 229.040561 
" clip-path="url(#p89564eb4ad)" style="fill: none; stroke: #0000ff; stroke-opacity: 0.8; stroke-width: 1.5; stroke-linecap: square"/>
   </g>
   <g id="line2d_15">
    <path d="M 57.6 307.584 
L 61.444074 304.543062 
L 65.288148 296.683629 
L 69.132222 286.942627 
L 72.976296 277.959666 
L 76.82037 270.839574 
L 80.664444 261.360586 
L 84.508518 252.321081 
L 88.352592 244.650009 
L 92.196666 238.435264 
L 96.04074 233.657432 
L 99.884814 230.273379 
L 103.728888 228.252144 
L 107.572962 227.579577 
L 111.417036 227.534207 
L 115.26111 227.404333 
L 119.105184 227.208653 
L 122.949258 226.977482 
L 126.793332 226.749238 
L 130.637406 226.562866 
L 134.48148 226.447591 
L 138.325554 226.415275 
L 142.169629 226.78296 
L 146.013703 230.965421 
L 149.857777 234.031989 
L 153.701851 235.899993 
L 157.545925 236.527182 
L 161.389999 236.413293 
L 165.234073 236.079113 
L 169.078147 235.546453 
L 172.922221 234.849636 
L 176.766295 234.032728 
L 180.610369 233.146186 
L 184.454443 232.243269 
L 188.298517 231.376579 
L 192.142591 230.59497 
L 195.986665 229.940997 
L 199.830739 229.448996 
L 203.674813 229.143861 
L 207.518887 229.040515 
L 211.052509 228.97107 
L 214.586131 228.757767 
L 218.119753 228.388025 
L 221.653375 227.844581 
L 225.186997 227.103394 
L 228.720619 226.126328 
L 232.254241 224.853517 
L 235.787863 223.202549 
L 239.321485 221.119601 
L 242.855107 221.301014 
L 246.388729 223.052217 
L 249.922352 224.566946 
L 253.455974 225.788392 
L 256.989596 226.695395 
L 260.523218 227.289754 
L 264.05684 227.603448 
L 267.590462 227.701469 
L 271.124084 227.672799 
L 274.657706 227.609243 
L 278.191328 227.579577 
L 281.760825 228.159464 
L 285.330323 229.901683 
L 288.89982 232.816282 
L 292.469317 236.925462 
L 296.038815 242.263062 
L 299.608312 248.857005 
L 303.177809 256.682671 
L 306.747306 265.586608 
L 310.316804 273.157557 
L 313.886301 280.355058 
L 317.455798 289.035323 
L 321.025296 297.996646 
L 324.594793 304.948536 
L 328.16429 307.584 
L 331.493356 306.253005 
L 334.822422 302.396116 
L 338.151488 296.600159 
L 341.480553 289.723373 
L 344.809619 282.624143 
L 348.138685 275.850043 
L 351.467751 269.533426 
L 354.796816 263.53962 
L 358.125882 257.767677 
L 361.454948 252.300619 
L 364.784014 247.290117 
L 368.113079 242.866997 
L 371.442145 239.114176 
L 374.771211 236.040831 
L 378.100277 233.586397 
L 381.429342 231.669136 
L 384.758408 230.225885 
L 388.087474 229.213276 
L 391.41654 228.589954 
L 394.745605 228.300879 
L 398.074671 228.271365 
L 401.403737 228.411435 
L 404.732803 228.627953 
L 408.061868 228.839533 
L 411.390934 228.98782 
L 414.72 229.040515 
" clip-path="url(#p89564eb4ad)" style="fill: none; stroke: #0000ff; stroke-opacity: 0.8; stroke-width: 1.5; stroke-linecap: square"/>
   </g>
   <g id="line2d_16">
    <path d="M 57.6 307.584 
L 61.444074 302.997216 
L 65.288148 291.259339 
L 69.132222 275.543795 
L 72.976296 258.932146 
L 76.82037 242.918268 
L 80.664444 227.909653 
L 84.508518 214.017924 
L 88.352592 201.414733 
L 92.196666 190.392889 
L 96.04074 181.313087 
L 99.884814 174.530197 
L 103.728888 170.334674 
L 107.572962 168.914545 
L 111.417036 170.943845 
L 115.26111 176.411922 
L 119.105184 183.948224 
L 122.949258 192.261322 
L 126.793332 200.516216 
L 130.637406 208.275012 
L 134.48148 215.318747 
L 138.325554 221.516082 
L 142.169629 226.439065 
L 146.013703 226.560956 
L 149.857777 226.704892 
L 153.701851 226.84352 
L 157.545925 226.904294 
L 161.389999 226.552828 
L 165.234073 225.517067 
L 169.078147 223.852104 
L 172.922221 221.647092 
L 176.766295 219.021356 
L 180.610369 216.119133 
L 184.454443 213.103034 
L 188.298517 210.146265 
L 192.142591 207.423583 
L 195.986665 205.101034 
L 199.830739 203.324762 
L 203.674813 202.209703 
L 207.518887 201.829546 
L 211.052509 202.219726 
L 214.586131 203.34037 
L 218.119753 205.059099 
L 221.653375 207.201419 
L 225.186997 209.59198 
L 228.720619 212.081515 
L 232.254241 214.555485 
L 235.787863 216.927011 
L 239.321485 219.079528 
L 242.855107 218.147355 
L 246.388729 214.669258 
L 249.922352 210.331396 
L 253.455974 205.136918 
L 256.989596 199.158284 
L 260.523218 192.594524 
L 264.05684 185.807216 
L 267.590462 179.339859 
L 271.124084 173.893066 
L 274.657706 170.217497 
L 278.191328 168.914545 
L 281.760825 170.139693 
L 285.330323 173.766802 
L 288.89982 179.655054 
L 292.469317 187.584279 
L 296.038815 197.278775 
L 299.608312 208.444135 
L 303.177809 220.816465 
L 306.747306 234.211035 
L 310.316804 248.530872 
L 313.886301 263.653946 
L 317.455798 279.069356 
L 321.025296 293.266114 
L 324.594793 303.587835 
L 328.16429 307.584 
L 331.493356 303.949596 
L 334.822422 294.734092 
L 338.151488 282.458387 
L 341.480553 269.726523 
L 344.809619 258.125124 
L 348.138685 248.399435 
L 351.467751 240.820205 
L 354.796816 235.31342 
L 358.125882 231.531646 
L 361.454948 228.954994 
L 364.784014 227.005045 
L 368.113079 225.1642 
L 371.442145 223.092316 
L 374.771211 220.693743 
L 378.100277 218.075571 
L 381.429342 215.424049 
L 384.758408 212.902095 
L 388.087474 210.61307 
L 391.41654 208.604643 
L 394.745605 206.883833 
L 398.074671 205.43274 
L 401.403737 204.224352 
L 404.732803 203.239951 
L 408.061868 202.485922 
L 411.390934 201.999444 
L 414.72 201.829546 
" clip-path="url(#p89564eb4ad)" style="fill: none; stroke: #0000ff; stroke-opacity: 0.8; stroke-width: 1.5; stroke-linecap: square"/>
   </g>
   <g id="line2d_17">
    <path d="M 57.6 153.701151 
L 61.444074 148.453881 
L 65.288148 131.991156 
L 69.132222 102.975153 
L 72.976296 61.333004 
L 76.82037 9.325007 
L 77.554944 -1 
M 193.708305 -1 
L 195.986665 14.001915 
L 199.830739 32.68008 
L 203.674813 44.129244 
L 207.518887 47.986324 
L 211.052509 46.377235 
L 214.586131 41.618918 
L 218.119753 33.851933 
L 221.653375 23.250705 
L 225.186997 9.962117 
L 227.626478 -1 
M 308.283573 -1 
L 310.316804 28.863086 
L 313.886301 74.42937 
L 317.455798 110.287667 
L 321.025296 135.084841 
L 324.594793 149.184748 
L 328.16429 153.701151 
L 331.493356 150.395816 
L 334.822422 140.538944 
L 338.151488 124.229588 
L 341.480553 101.489795 
L 344.809619 72.398907 
L 348.138685 37.57087 
L 351.443828 -1 
M 396.233507 -1 
L 398.074671 8.099726 
L 401.403737 22.075936 
L 404.732803 33.251665 
L 408.061868 41.38839 
L 411.390934 46.327963 
L 414.72 47.986324 
" clip-path="url(#p89564eb4ad)" style="fill: none; stroke: #0000ff; stroke-opacity: 0.8; stroke-width: 1.5; stroke-linecap: square"/>
   </g>
   <g id="line2d_18">
    <path d="M 57.6 153.700732 
L 61.444074 143.810396 
L 65.288148 114.062201 
L 69.132222 67.023621 
L 72.976296 18.860852 
L 75.229879 -1 
M 193.709718 -1 
L 195.986665 13.994159 
L 199.830739 32.673393 
L 203.674813 44.12307 
L 207.518887 47.980306 
L 211.052509 44.540948 
L 214.586131 34.422014 
L 218.119753 18.239522 
L 221.311484 -1 
M 310.614947 -1 
L 313.886301 31.118745 
L 317.455798 78.085413 
L 321.025296 119.504753 
L 324.594793 145.175798 
L 328.16429 153.700732 
L 331.493356 148.314474 
L 334.822422 132.089498 
L 338.151488 105.581329 
L 341.480553 71.843028 
L 344.809619 36.996808 
L 348.138685 5.708783 
L 348.93182 -1 
M 402.640055 -1 
L 404.732803 14.025671 
L 408.061868 32.427118 
L 411.390934 44.022586 
L 414.72 47.980306 
" clip-path="url(#p89564eb4ad)" style="fill: none; stroke: #0000ff; stroke-opacity: 0.8; stroke-width: 1.5; stroke-linecap: square"/>
   </g>
   <g id="line2d_19">
    <path d="M 57.6 30.745907 
L 61.444074 27.665332 
L 65.288148 17.806167 
L 68.882915 -1 
M 316.999158 -1 
L 317.455798 3.317696 
L 321.025296 19.701389 
L 324.594793 28.094771 
L 328.16429 30.745907 
L 331.493356 27.918021 
L 334.822422 19.210064 
L 338.151488 3.709993 
L 338.788914 -1 
" clip-path="url(#p89564eb4ad)" style="fill: none; stroke: #0000ff; stroke-opacity: 0.8; stroke-width: 1.5; stroke-linecap: square"/>
   </g>
   <g id="line2d_20">
    <path clip-path="url(#p89564eb4ad)" style="fill: none; stroke: #0000ff; stroke-opacity: 0.8; stroke-width: 1.5; stroke-linecap: square"/>
   </g>
   <g id="line2d_21">
    <path clip-path="url(#p89564eb4ad)" style="fill: none; stroke: #0000ff; stroke-opacity: 0.8; stroke-width: 1.5; stroke-linecap: square"/>
   </g>
   <g id="line2d_22">
    <path clip-path="url(#p89564eb4ad)" style="fill: none; stroke: #0000ff; stroke-opacity: 0.8; stroke-width: 1.5; stroke-linecap: square"/>
   </g>
   <g id="line2d_23">
    <path clip-path="url(#p89564eb4ad)" style="fill: none; stroke: #0000ff; stroke-opacity: 0.8; stroke-width: 1.5; stroke-linecap: square"/>
   </g>
   <g id="line2d_24">
    <path clip-path="url(#p89564eb4ad)" style="fill: none; stroke: #0000ff; stroke-opacity: 0.8; stroke-width: 1.5; stroke-linecap: square"/>
   </g>
   <g id="line2d_25">
    <path clip-path="url(#p89564eb4ad)" style="fill: none; stroke: #0000ff; stroke-opacity: 0.8; stroke-width: 1.5; stroke-linecap: square"/>
   </g>
   <g id="line2d_26">
    <path clip-path="url(#p89564eb4ad)" style="fill: none; stroke: #0000ff; stroke-opacity: 0.8; stroke-width: 1.5; stroke-linecap: square"/>
   </g>
   <g id="line2d_27">
    <path clip-path="url(#p89564eb4ad)" style="fill: none; stroke: #0000ff; stroke-opacity: 0.8; stroke-width: 1.5; stroke-linecap: square"/>
   </g>
   <g id="line2d_28">
    <path clip-path="url(#p89564eb4ad)" style="fill: none; stroke: #0000ff; stroke-opacity: 0.8; stroke-width: 1.5; stroke-linecap: square"/>
   </g>
   <g id="line2d_29">
    <path d="M 57.6 307.584 
L 57.6 41.472 
" clip-path="url(#p89564eb4ad)" style="fill: none; stroke: #808080; stroke-width: 0.6; stroke-linecap: square"/>
   </g>
   <g id="line2d_30">
    <path d="M 107.572962 307.584 
L 107.572962 41.472 
" clip-path="url(#p89564eb4ad)" style="fill: none; stroke: #808080; stroke-width: 0.6; stroke-linecap: square"/>
   </g>
   <g id="line2d_31">
    <path d="M 157.545925 307.584 
L 157.545925 41.472 
" clip-path="url(#p89564eb4ad)" style="fill: none; stroke: #808080; stroke-width: 0.6; stroke-linecap: square"/>
   </g>
   <g id="line2d_32">
    <path d="M 207.518887 307.584 
L 207.518887 41.472 
" clip-path="url(#p89564eb4ad)" style="fill: none; stroke: #808080; stroke-width: 0.6; stroke-linecap: square"/>
   </g>
   <g id="line2d_33">
    <path d="M 278.191328 307.584 
L 278.191328 41.472 
" clip-path="url(#p89564eb4ad)" style="fill: none; stroke: #808080; stroke-width: 0.6; stroke-linecap: square"/>
   </g>
   <g id="line2d_34">
    <path d="M 328.16429 307.584 
L 328.16429 41.472 
" clip-path="url(#p89564eb4ad)" style="fill: none; stroke: #808080; stroke-width: 0.6; stroke-linecap: square"/>
   </g>
   <g id="line2d_35">
    <path d="M 414.72 307.584 
L 414.72 41.472 
" clip-path="url(#p89564eb4ad)" style="fill: none; stroke: #808080; stroke-width: 0.6; stroke-linecap: square"/>
   </g>
   <g id="line2d_36">
    <path d="M 57.6 307.584 
L 61.444074 306.736643 
L 65.288148 303.740935 
L 69.132222 299.146283 
L 72.976296 293.092139 
L 76.82037 285.930347 
L 80.664444 278.077124 
L 84.508518 269.98887 
L 88.352592 262.135647 
L 92.196666 254.973855 
L 96.04074 248.919711 
L 99.884814 244.325059 
L 103.728888 241.456925 
L 107.572962 240.481994 
L 111.417036 240.652102 
L 115.26111 241.146734 
L 119.105184 241.921099 
L 122.949258 242.907532 
L 126.793332 244.024175 
L 130.637406 245.184477 
L 134.48148 246.306296 
L 138.325554 247.31983 
L 142.169629 248.173787 
L 146.013703 248.839214 
L 149.857777 249.311317 
L 153.701851 249.627121 
L 157.545925 249.932474 
L 161.389999 249.63542 
L 165.234073 248.760745 
L 169.078147 247.357575 
L 172.922221 245.509058 
L 176.766295 243.430078 
L 180.610369 241.272721 
L 184.454443 239.057148 
L 188.298517 236.907222 
L 192.142591 234.947133 
L 195.986665 233.290474 
L 199.830739 232.033328 
L 203.674813 231.248628 
L 207.518887 230.981903 
L 211.052509 231.295638 
L 214.586131 232.429507 
L 218.119753 234.522161 
L 221.653375 237.378156 
L 225.186997 240.714837 
L 228.720619 244.219783 
L 232.254241 247.562087 
L 235.787863 250.424351 
L 239.321485 252.541601 
L 242.855107 253.735185 
L 246.388729 253.935509 
L 249.922352 253.191009 
L 253.455974 251.66207 
L 256.989596 249.598623 
L 260.523218 247.300723 
L 264.05684 245.06606 
L 267.590462 243.138936 
L 271.124084 241.682548 
L 274.657706 240.784518 
L 278.191328 240.481994 
L 281.760825 241.323188 
L 285.330323 243.804588 
L 288.89982 247.801767 
L 292.469317 253.114289 
L 296.038815 259.475762 
L 299.608312 266.567196 
L 303.177809 274.032997 
L 306.747306 281.498798 
L 310.316804 288.590232 
L 313.886301 294.951705 
L 317.455798 300.264227 
L 321.025296 304.261406 
L 324.594793 306.899229 
L 328.16429 307.584 
L 331.493356 307.067439 
L 334.822422 304.893596 
L 338.151488 301.526692 
L 341.480553 297.128049 
L 344.809619 291.945604 
L 348.138685 286.270111 
L 351.467751 280.403814 
L 354.796816 274.63606 
L 358.125882 269.222878 
L 361.454948 264.371155 
L 364.784014 260.227081 
L 368.113079 256.866661 
L 371.442145 254.285131 
L 374.771211 252.385445 
L 378.100277 250.975397 
L 381.429342 249.789996 
L 384.758408 248.545265 
L 388.087474 247.006619 
L 391.41654 245.044814 
L 394.745605 242.662608 
L 398.074671 239.989995 
L 401.403737 237.254276 
L 404.732803 234.734556 
L 408.061868 232.711444 
L 411.390934 231.418254 
L 414.72 230.981903 
" clip-path="url(#p89564eb4ad)" style="fill: none; stroke: #008000; stroke-opacity: 0.5; stroke-width: 1.5; stroke-linecap: square"/>
   </g>
   <g id="line2d_37">
    <path d="M 57.6 307.584 
L 61.444074 306.609069 
L 65.288148 303.005733 
L 69.132222 296.850007 
L 72.976296 288.693933 
L 76.82037 279.030718 
L 80.664444 268.42863 
L 84.508518 257.506585 
L 88.352592 246.90064 
L 92.196666 237.227859 
L 96.04074 229.050774 
L 99.884814 222.844832 
L 103.728888 218.970829 
L 107.572962 217.653978 
L 111.417036 217.812713 
L 115.26111 218.285541 
L 119.105184 219.061177 
L 122.949258 220.117516 
L 126.793332 221.418354 
L 130.637406 222.911283 
L 134.48148 224.528967 
L 138.325554 226.20882 
L 142.169629 229.685905 
L 146.013703 237.905989 
L 149.857777 244.271134 
L 153.701851 248.21129 
L 157.545925 249.349648 
L 161.389999 249.082244 
L 165.234073 248.295574 
L 169.078147 247.035053 
L 172.922221 245.369847 
L 176.766295 243.287119 
L 180.610369 240.875363 
L 184.454443 238.379703 
L 188.298517 235.950716 
L 192.142591 233.731553 
L 195.986665 231.852991 
L 199.830739 230.425853 
L 203.674813 229.534396 
L 207.518887 229.231275 
L 211.052509 229.450584 
L 214.586131 229.847785 
L 218.119753 230.081605 
L 221.653375 230.01745 
L 225.186997 229.499696 
L 228.720619 228.332698 
L 232.254241 226.331561 
L 235.787863 223.404772 
L 239.321485 221.154305 
L 242.855107 222.383236 
L 246.388729 223.415157 
L 249.922352 223.934809 
L 253.455974 223.923691 
L 256.989596 223.414949 
L 260.523218 222.486031 
L 264.05684 221.268169 
L 267.590462 219.951813 
L 271.124084 218.769148 
L 274.657706 217.9479 
L 278.191328 217.653978 
L 281.760825 218.790189 
L 285.330323 222.141831 
L 288.89982 227.54079 
L 292.469317 234.716244 
L 296.038815 243.308231 
L 299.608312 252.885654 
L 303.177809 262.967831 
L 306.747306 273.048436 
L 310.316804 282.620543 
L 313.886301 291.201138 
L 317.455798 298.352747 
L 321.025296 303.696649 
L 324.594793 306.742806 
L 328.16429 307.584 
L 331.493356 306.810938 
L 334.822422 304.255782 
L 338.151488 299.886126 
L 341.480553 294.055806 
L 344.809619 287.127725 
L 348.138685 279.491615 
L 351.467751 271.550547 
L 354.796816 263.697099 
L 358.125882 256.29011 
L 361.454948 249.634433 
L 364.784014 243.961465 
L 368.113079 239.40476 
L 371.442145 235.971186 
L 374.771211 233.532254 
L 378.100277 231.869348 
L 381.429342 230.756568 
L 384.758408 230.020721 
L 388.087474 229.550751 
L 391.41654 229.276989 
L 394.745605 229.148056 
L 398.074671 229.118353 
L 401.403737 229.145744 
L 404.732803 229.193525 
L 408.061868 229.231643 
L 411.390934 229.239633 
L 414.72 229.231275 
" clip-path="url(#p89564eb4ad)" style="fill: none; stroke: #008000; stroke-opacity: 0.5; stroke-width: 1.5; stroke-linecap: square"/>
   </g>
   <g id="line2d_38">
    <path d="M 57.6 307.584 
L 61.444074 304.924879 
L 65.288148 298.340139 
L 69.132222 287.970551 
L 72.976296 274.35204 
L 76.82037 258.256855 
L 80.664444 240.613715 
L 84.508518 222.445214 
L 88.352592 204.805931 
L 92.196666 188.720313 
L 96.04074 175.122812 
L 99.884814 164.80344 
L 103.728888 158.361793 
L 107.572962 156.172167 
L 111.417036 157.529277 
L 115.26111 161.521693 
L 119.105184 167.917245 
L 122.949258 176.343931 
L 126.793332 186.311371 
L 130.637406 197.238753 
L 134.48148 208.486303 
L 138.325554 219.373531 
L 142.169629 227.427409 
L 146.013703 229.011357 
L 149.857777 230.119661 
L 153.701851 230.823578 
L 157.545925 231.06582 
L 161.389999 230.633792 
L 165.234073 229.363593 
L 169.078147 227.331052 
L 172.922221 224.656784 
L 176.766295 221.498363 
L 180.610369 218.040632 
L 184.454443 214.484793 
L 188.298517 211.036861 
L 192.142591 207.895985 
L 195.986665 205.243215 
L 199.830739 203.231266 
L 203.674813 201.975879 
L 207.518887 201.549241 
L 211.052509 201.990254 
L 214.586131 203.264608 
L 218.119753 205.236632 
L 221.653375 207.711208 
L 225.186997 210.468578 
L 228.720619 213.293806 
L 232.254241 215.989866 
L 235.787863 218.337895 
L 239.321485 218.525359 
L 242.855107 213.657279 
L 246.388729 207.447114 
L 249.922352 200.377022 
L 253.455974 192.75396 
L 256.989596 184.939789 
L 260.523218 177.341115 
L 264.05684 170.381266 
L 267.590462 164.467575 
L 271.124084 159.958502 
L 274.657706 157.134019 
L 278.191328 156.172167 
L 281.760825 158.061428 
L 285.330323 163.634492 
L 288.89982 172.611952 
L 292.469317 184.543735 
L 296.038815 198.831688 
L 299.608312 214.759611 
L 303.177809 231.529242 
L 306.747306 248.300443 
L 310.316804 264.233683 
L 313.886301 278.533027 
L 317.455798 290.488655 
L 321.025296 299.521172 
L 324.594793 305.243299 
L 328.16429 307.584 
L 331.493356 305.832407 
L 334.822422 301.652013 
L 338.151488 295.232244 
L 341.480553 287.024077 
L 344.809619 277.632223 
L 348.138685 267.72325 
L 351.467751 257.943473 
L 354.796816 248.845441 
L 358.125882 240.828403 
L 361.454948 234.100494 
L 364.784014 228.672214 
L 368.113079 224.391634 
L 371.442145 221.021722 
L 374.771211 218.328431 
L 378.100277 216.126249 
L 381.429342 214.268822 
L 384.758408 212.626457 
L 388.087474 211.083669 
L 391.41654 209.554652 
L 394.745605 208.000567 
L 398.074671 206.436957 
L 401.403737 204.928708 
L 404.732803 203.575884 
L 408.061868 202.494263 
L 411.390934 201.79264 
L 414.72 201.549241 
" clip-path="url(#p89564eb4ad)" style="fill: none; stroke: #008000; stroke-opacity: 0.5; stroke-width: 1.5; stroke-linecap: square"/>
   </g>
   <g id="line2d_39">
    <path d="M 57.6 307.584 
L 57.6 41.472 
" clip-path="url(#p89564eb4ad)" style="fill: none; stroke: #808080; stroke-width: 0.6; stroke-linecap: square"/>
   </g>
   <g id="line2d_40">
    <path d="M 107.572962 307.584 
L 107.572962 41.472 
" clip-path="url(#p89564eb4ad)" style="fill: none; stroke: #808080; stroke-width: 0.6; stroke-linecap: square"/>
   </g>
   <g id="line2d_41">
    <path d="M 157.545925 307.584 
L 157.545925 41.472 
" clip-path="url(#p89564eb4ad)" style="fill: none; stroke: #808080; stroke-width: 0.6; stroke-linecap: square"/>
   </g>
   <g id="line2d_42">
    <path d="M 207.518887 307.584 
L 207.518887 41.472 
" clip-path="url(#p89564eb4ad)" style="fill: none; stroke: #808080; stroke-width: 0.6; stroke-linecap: square"/>
   </g>
   <g id="line2d_43">
    <path d="M 278.191328 307.584 
L 278.191328 41.472 
" clip-path="url(#p89564eb4ad)" style="fill: none; stroke: #808080; stroke-width: 0.6; stroke-linecap: square"/>
   </g>
   <g id="line2d_44">
    <path d="M 328.16429 307.584 
L 328.16429 41.472 
" clip-path="url(#p89564eb4ad)" style="fill: none; stroke: #808080; stroke-width: 0.6; stroke-linecap: square"/>
   </g>
   <g id="line2d_45">
    <path d="M 414.72 307.584 
L 414.72 41.472 
" clip-path="url(#p89564eb4ad)" style="fill: none; stroke: #808080; stroke-width: 0.6; stroke-linecap: square"/>
   </g>
   <g id="patch_3">
    <path d="M 57.6 307.584 
L 57.6 41.472 
" style="fill: none; stroke: #000000; stroke-width: 0.8; stroke-linejoin: miter; stroke-linecap: square"/>
   </g>
   <g id="patch_4">
    <path d="M 414.72 307.584 
L 414.72 41.472 
" style="fill: none; stroke: #000000; stroke-width: 0.8; stroke-linejoin: miter; stroke-linecap: square"/>
   </g>
   <g id="patch_5">
    <path d="M 57.6 307.584 
L 414.72 307.584 
" style="fill: none; stroke: #000000; stroke-width: 0.8; stroke-linejoin: miter; stroke-linecap: square"/>
   </g>
   <g id="patch_6">
    <path d="M 57.6 41.472 
L 414.72 41.472 
" style="fill: none; stroke: #000000; stroke-width: 0.8; stroke-linejoin: miter; stroke-linecap: square"/>
   </g>
  </g>
 </g>
 <defs>
  <clipPath id="p89564eb4ad">
   <rect x="57.6" y="41.472" width="357.12" height="266.112"/>
  </clipPath>
 </defs>
</svg>
