<?xml version="1.0" encoding="utf-8" standalone="no"?>
<!DOCTYPE svg PUBLIC "-//W3C//DTD SVG 1.1//EN"
  "http://www.w3.org/Graphics/SVG/1.1/DTD/svg11.dtd">
<svg xmlns:xlink="http://www.w3.org/1999/xlink" width="460.8pt" height="345.6pt" viewBox="0 0 460.8 345.6" xmlns="http://www.w3.org/2000/svg" version="1.1">
 <metadata>
  <rdf:RDF xmlns:dc="http://purl.org/dc/elements/1.1/" xmlns:cc="http://creativecommons.org/ns#" xmlns:rdf="http://www.w3.org/1999/02/22-rdf-syntax-ns#">
   <cc:Work>
    <dc:type rdf:resource="http://purl.org/dc/dcmitype/StillImage"/>
    <dc:date>2023-08-16T17:17:21.375245</dc:date>
    <dc:format>image/svg+xml</dc:format>
    <dc:creator>
     <cc:Agent>
      <dc:title>Matplotlib v3.7.2, https://matplotlib.org/</dc:title>
     </cc:Agent>
    </dc:creator>
   </cc:Work>
  </rdf:RDF>
 </metadata>
 <defs>
  <style type="text/css">*{stroke-linejoin: round; stroke-linecap: butt}</style>
 </defs>
 <g id="figure_1">
  <g id="patch_1">
   <path d="M 0 345.6 
L 460.8 345.6 
L 460.8 0 
L 0 0 
z
" style="fill: #ffffff"/>
  </g>
  <g id="axes_1">
   <g id="patch_2">
    <path d="M 57.6 307.584 
L 414.72 307.584 
L 414.72 41.472 
L 57.6 41.472 
z
" style="fill: #ffffff"/>
   </g>
   <g id="matplotlib.axis_1">
    <g id="xtick_1">
     <g id="line2d_1">
      <defs>
       <path id="mffdacf589e" d="M 0 0 
L 0 3.5 
" style="stroke: #000000; stroke-width: 0.8"/>
      </defs>
      <g>
       <use xlink:href="#mffdacf589e" x="57.6" y="307.584" style="stroke: #000000; stroke-width: 0.8"/>
      </g>
     </g>
     <g id="text_1">
      <!-- $\Gamma$ -->
      <g transform="translate(54.8 322.182437) scale(0.1 -0.1)">
       <defs>
        <path id="DejaVuSans-393" d="M 628 0 
L 628 4666 
L 3531 4666 
L 3531 4134 
L 1259 4134 
L 1259 0 
L 628 0 
z
" transform="scale(0.015625)"/>
       </defs>
       <use xlink:href="#DejaVuSans-393" transform="translate(0 0.09375)"/>
      </g>
     </g>
    </g>
    <g id="xtick_2">
     <g id="line2d_2">
      <g>
       <use xlink:href="#mffdacf589e" x="126.994025" y="307.584" style="stroke: #000000; stroke-width: 0.8"/>
      </g>
     </g>
     <g id="text_2">
      <!-- X -->
      <g transform="translate(123.569025 322.182437) scale(0.1 -0.1)">
       <defs>
        <path id="DejaVuSans-58" d="M 403 4666 
L 1081 4666 
L 2241 2931 
L 3406 4666 
L 4084 4666 
L 2584 2425 
L 4184 0 
L 3506 0 
L 2194 1984 
L 872 0 
L 191 0 
L 1856 2491 
L 403 4666 
z
" transform="scale(0.015625)"/>
       </defs>
       <use xlink:href="#DejaVuSans-58"/>
      </g>
     </g>
    </g>
    <g id="xtick_3">
     <g id="line2d_3">
      <g>
       <use xlink:href="#mffdacf589e" x="196.388051" y="307.584" style="stroke: #000000; stroke-width: 0.8"/>
      </g>
     </g>
     <g id="text_3">
      <!-- M -->
      <g transform="translate(192.073988 322.182437) scale(0.1 -0.1)">
       <defs>
        <path id="DejaVuSans-4d" d="M 628 4666 
L 1569 4666 
L 2759 1491 
L 3956 4666 
L 4897 4666 
L 4897 0 
L 4281 0 
L 4281 4097 
L 3078 897 
L 2444 897 
L 1241 4097 
L 1241 0 
L 628 0 
L 628 4666 
z
" transform="scale(0.015625)"/>
       </defs>
       <use xlink:href="#DejaVuSans-4d"/>
      </g>
     </g>
    </g>
    <g id="xtick_4">
     <g id="line2d_4">
      <g>
       <use xlink:href="#mffdacf589e" x="294.526022" y="307.584" style="stroke: #000000; stroke-width: 0.8"/>
      </g>
     </g>
     <g id="text_4">
      <!-- $\Gamma$ -->
      <g transform="translate(291.726022 322.182437) scale(0.1 -0.1)">
       <use xlink:href="#DejaVuSans-393" transform="translate(0 0.09375)"/>
      </g>
     </g>
    </g>
    <g id="xtick_5">
     <g id="line2d_5">
      <g>
       <use xlink:href="#mffdacf589e" x="414.72" y="307.584" style="stroke: #000000; stroke-width: 0.8"/>
      </g>
     </g>
     <g id="text_5">
      <!-- R -->
      <g transform="translate(411.245781 322.182437) scale(0.1 -0.1)">
       <defs>
        <path id="DejaVuSans-52" d="M 2841 2188 
Q 3044 2119 3236 1894 
Q 3428 1669 3622 1275 
L 4263 0 
L 3584 0 
L 2988 1197 
Q 2756 1666 2539 1819 
Q 2322 1972 1947 1972 
L 1259 1972 
L 1259 0 
L 628 0 
L 628 4666 
L 2053 4666 
Q 2853 4666 3247 4331 
Q 3641 3997 3641 3322 
Q 3641 2881 3436 2590 
Q 3231 2300 2841 2188 
z
M 1259 4147 
L 1259 2491 
L 2053 2491 
Q 2509 2491 2742 2702 
Q 2975 2913 2975 3322 
Q 2975 3731 2742 3939 
Q 2509 4147 2053 4147 
L 1259 4147 
z
" transform="scale(0.015625)"/>
       </defs>
       <use xlink:href="#DejaVuSans-52"/>
      </g>
     </g>
    </g>
   </g>
   <g id="matplotlib.axis_2">
    <g id="ytick_1">
     <g id="line2d_6">
      <defs>
       <path id="md659b5be61" d="M 0 0 
L -3.5 0 
" style="stroke: #000000; stroke-width: 0.8"/>
      </defs>
      <g>
       <use xlink:href="#md659b5be61" x="57.6" y="291.500257" style="stroke: #000000; stroke-width: 0.8"/>
      </g>
     </g>
     <g id="text_6">
      <!-- 0 -->
      <g transform="translate(44.2375 295.299475) scale(0.1 -0.1)">
       <defs>
        <path id="DejaVuSans-30" d="M 2034 4250 
Q 1547 4250 1301 3770 
Q 1056 3291 1056 2328 
Q 1056 1369 1301 889 
Q 1547 409 2034 409 
Q 2525 409 2770 889 
Q 3016 1369 3016 2328 
Q 3016 3291 2770 3770 
Q 2525 4250 2034 4250 
z
M 2034 4750 
Q 2819 4750 3233 4129 
Q 3647 3509 3647 2328 
Q 3647 1150 3233 529 
Q 2819 -91 2034 -91 
Q 1250 -91 836 529 
Q 422 1150 422 2328 
Q 422 3509 836 4129 
Q 1250 4750 2034 4750 
z
" transform="scale(0.015625)"/>
       </defs>
       <use xlink:href="#DejaVuSans-30"/>
      </g>
     </g>
    </g>
    <g id="ytick_2">
     <g id="line2d_7">
      <g>
       <use xlink:href="#md659b5be61" x="57.6" y="253.54184" style="stroke: #000000; stroke-width: 0.8"/>
      </g>
     </g>
     <g id="text_7">
      <!-- 2 -->
      <g transform="translate(44.2375 257.341059) scale(0.1 -0.1)">
       <defs>
        <path id="DejaVuSans-32" d="M 1228 531 
L 3431 531 
L 3431 0 
L 469 0 
L 469 531 
Q 828 903 1448 1529 
Q 2069 2156 2228 2338 
Q 2531 2678 2651 2914 
Q 2772 3150 2772 3378 
Q 2772 3750 2511 3984 
Q 2250 4219 1831 4219 
Q 1534 4219 1204 4116 
Q 875 4013 500 3803 
L 500 4441 
Q 881 4594 1212 4672 
Q 1544 4750 1819 4750 
Q 2544 4750 2975 4387 
Q 3406 4025 3406 3419 
Q 3406 3131 3298 2873 
Q 3191 2616 2906 2266 
Q 2828 2175 2409 1742 
Q 1991 1309 1228 531 
z
" transform="scale(0.015625)"/>
       </defs>
       <use xlink:href="#DejaVuSans-32"/>
      </g>
     </g>
    </g>
    <g id="ytick_3">
     <g id="line2d_8">
      <g>
       <use xlink:href="#md659b5be61" x="57.6" y="215.583423" style="stroke: #000000; stroke-width: 0.8"/>
      </g>
     </g>
     <g id="text_8">
      <!-- 4 -->
      <g transform="translate(44.2375 219.382642) scale(0.1 -0.1)">
       <defs>
        <path id="DejaVuSans-34" d="M 2419 4116 
L 825 1625 
L 2419 1625 
L 2419 4116 
z
M 2253 4666 
L 3047 4666 
L 3047 1625 
L 3713 1625 
L 3713 1100 
L 3047 1100 
L 3047 0 
L 2419 0 
L 2419 1100 
L 313 1100 
L 313 1709 
L 2253 4666 
z
" transform="scale(0.015625)"/>
       </defs>
       <use xlink:href="#DejaVuSans-34"/>
      </g>
     </g>
    </g>
    <g id="ytick_4">
     <g id="line2d_9">
      <g>
       <use xlink:href="#md659b5be61" x="57.6" y="177.625006" style="stroke: #000000; stroke-width: 0.8"/>
      </g>
     </g>
     <g id="text_9">
      <!-- 6 -->
      <g transform="translate(44.2375 181.424225) scale(0.1 -0.1)">
       <defs>
        <path id="DejaVuSans-36" d="M 2113 2584 
Q 1688 2584 1439 2293 
Q 1191 2003 1191 1497 
Q 1191 994 1439 701 
Q 1688 409 2113 409 
Q 2538 409 2786 701 
Q 3034 994 3034 1497 
Q 3034 2003 2786 2293 
Q 2538 2584 2113 2584 
z
M 3366 4563 
L 3366 3988 
Q 3128 4100 2886 4159 
Q 2644 4219 2406 4219 
Q 1781 4219 1451 3797 
Q 1122 3375 1075 2522 
Q 1259 2794 1537 2939 
Q 1816 3084 2150 3084 
Q 2853 3084 3261 2657 
Q 3669 2231 3669 1497 
Q 3669 778 3244 343 
Q 2819 -91 2113 -91 
Q 1303 -91 875 529 
Q 447 1150 447 2328 
Q 447 3434 972 4092 
Q 1497 4750 2381 4750 
Q 2619 4750 2861 4703 
Q 3103 4656 3366 4563 
z
" transform="scale(0.015625)"/>
       </defs>
       <use xlink:href="#DejaVuSans-36"/>
      </g>
     </g>
    </g>
    <g id="ytick_5">
     <g id="line2d_10">
      <g>
       <use xlink:href="#md659b5be61" x="57.6" y="139.666589" style="stroke: #000000; stroke-width: 0.8"/>
      </g>
     </g>
     <g id="text_10">
      <!-- 8 -->
      <g transform="translate(44.2375 143.465808) scale(0.1 -0.1)">
       <defs>
        <path id="DejaVuSans-38" d="M 2034 2216 
Q 1584 2216 1326 1975 
Q 1069 1734 1069 1313 
Q 1069 891 1326 650 
Q 1584 409 2034 409 
Q 2484 409 2743 651 
Q 3003 894 3003 1313 
Q 3003 1734 2745 1975 
Q 2488 2216 2034 2216 
z
M 1403 2484 
Q 997 2584 770 2862 
Q 544 3141 544 3541 
Q 544 4100 942 4425 
Q 1341 4750 2034 4750 
Q 2731 4750 3128 4425 
Q 3525 4100 3525 3541 
Q 3525 3141 3298 2862 
Q 3072 2584 2669 2484 
Q 3125 2378 3379 2068 
Q 3634 1759 3634 1313 
Q 3634 634 3220 271 
Q 2806 -91 2034 -91 
Q 1263 -91 848 271 
Q 434 634 434 1313 
Q 434 1759 690 2068 
Q 947 2378 1403 2484 
z
M 1172 3481 
Q 1172 3119 1398 2916 
Q 1625 2713 2034 2713 
Q 2441 2713 2670 2916 
Q 2900 3119 2900 3481 
Q 2900 3844 2670 4047 
Q 2441 4250 2034 4250 
Q 1625 4250 1398 4047 
Q 1172 3844 1172 3481 
z
" transform="scale(0.015625)"/>
       </defs>
       <use xlink:href="#DejaVuSans-38"/>
      </g>
     </g>
    </g>
    <g id="ytick_6">
     <g id="line2d_11">
      <g>
       <use xlink:href="#md659b5be61" x="57.6" y="101.708172" style="stroke: #000000; stroke-width: 0.8"/>
      </g>
     </g>
     <g id="text_11">
      <!-- 10 -->
      <g transform="translate(37.875 105.507391) scale(0.1 -0.1)">
       <defs>
        <path id="DejaVuSans-31" d="M 794 531 
L 1825 531 
L 1825 4091 
L 703 3866 
L 703 4441 
L 1819 4666 
L 2450 4666 
L 2450 531 
L 3481 531 
L 3481 0 
L 794 0 
L 794 531 
z
" transform="scale(0.015625)"/>
       </defs>
       <use xlink:href="#DejaVuSans-31"/>
       <use xlink:href="#DejaVuSans-30" x="63.623047"/>
      </g>
     </g>
    </g>
    <g id="ytick_7">
     <g id="line2d_12">
      <g>
       <use xlink:href="#md659b5be61" x="57.6" y="63.749755" style="stroke: #000000; stroke-width: 0.8"/>
      </g>
     </g>
     <g id="text_12">
      <!-- 12 -->
      <g transform="translate(37.875 67.548974) scale(0.1 -0.1)">
       <use xlink:href="#DejaVuSans-31"/>
       <use xlink:href="#DejaVuSans-32" x="63.623047"/>
      </g>
     </g>
    </g>
    <g id="text_13">
     <!-- Energy (eV) -->
     <g transform="translate(31.795312 204.02175) rotate(-90) scale(0.1 -0.1)">
      <defs>
       <path id="DejaVuSans-45" d="M 628 4666 
L 3578 4666 
L 3578 4134 
L 1259 4134 
L 1259 2753 
L 3481 2753 
L 3481 2222 
L 1259 2222 
L 1259 531 
L 3634 531 
L 3634 0 
L 628 0 
L 628 4666 
z
" transform="scale(0.015625)"/>
       <path id="DejaVuSans-6e" d="M 3513 2113 
L 3513 0 
L 2938 0 
L 2938 2094 
Q 2938 2591 2744 2837 
Q 2550 3084 2163 3084 
Q 1697 3084 1428 2787 
Q 1159 2491 1159 1978 
L 1159 0 
L 581 0 
L 581 3500 
L 1159 3500 
L 1159 2956 
Q 1366 3272 1645 3428 
Q 1925 3584 2291 3584 
Q 2894 3584 3203 3211 
Q 3513 2838 3513 2113 
z
" transform="scale(0.015625)"/>
       <path id="DejaVuSans-65" d="M 3597 1894 
L 3597 1613 
L 953 1613 
Q 991 1019 1311 708 
Q 1631 397 2203 397 
Q 2534 397 2845 478 
Q 3156 559 3463 722 
L 3463 178 
Q 3153 47 2828 -22 
Q 2503 -91 2169 -91 
Q 1331 -91 842 396 
Q 353 884 353 1716 
Q 353 2575 817 3079 
Q 1281 3584 2069 3584 
Q 2775 3584 3186 3129 
Q 3597 2675 3597 1894 
z
M 3022 2063 
Q 3016 2534 2758 2815 
Q 2500 3097 2075 3097 
Q 1594 3097 1305 2825 
Q 1016 2553 972 2059 
L 3022 2063 
z
" transform="scale(0.015625)"/>
       <path id="DejaVuSans-72" d="M 2631 2963 
Q 2534 3019 2420 3045 
Q 2306 3072 2169 3072 
Q 1681 3072 1420 2755 
Q 1159 2438 1159 1844 
L 1159 0 
L 581 0 
L 581 3500 
L 1159 3500 
L 1159 2956 
Q 1341 3275 1631 3429 
Q 1922 3584 2338 3584 
Q 2397 3584 2469 3576 
Q 2541 3569 2628 3553 
L 2631 2963 
z
" transform="scale(0.015625)"/>
       <path id="DejaVuSans-67" d="M 2906 1791 
Q 2906 2416 2648 2759 
Q 2391 3103 1925 3103 
Q 1463 3103 1205 2759 
Q 947 2416 947 1791 
Q 947 1169 1205 825 
Q 1463 481 1925 481 
Q 2391 481 2648 825 
Q 2906 1169 2906 1791 
z
M 3481 434 
Q 3481 -459 3084 -895 
Q 2688 -1331 1869 -1331 
Q 1566 -1331 1297 -1286 
Q 1028 -1241 775 -1147 
L 775 -588 
Q 1028 -725 1275 -790 
Q 1522 -856 1778 -856 
Q 2344 -856 2625 -561 
Q 2906 -266 2906 331 
L 2906 616 
Q 2728 306 2450 153 
Q 2172 0 1784 0 
Q 1141 0 747 490 
Q 353 981 353 1791 
Q 353 2603 747 3093 
Q 1141 3584 1784 3584 
Q 2172 3584 2450 3431 
Q 2728 3278 2906 2969 
L 2906 3500 
L 3481 3500 
L 3481 434 
z
" transform="scale(0.015625)"/>
       <path id="DejaVuSans-79" d="M 2059 -325 
Q 1816 -950 1584 -1140 
Q 1353 -1331 966 -1331 
L 506 -1331 
L 506 -850 
L 844 -850 
Q 1081 -850 1212 -737 
Q 1344 -625 1503 -206 
L 1606 56 
L 191 3500 
L 800 3500 
L 1894 763 
L 2988 3500 
L 3597 3500 
L 2059 -325 
z
" transform="scale(0.015625)"/>
       <path id="DejaVuSans-20" transform="scale(0.015625)"/>
       <path id="DejaVuSans-28" d="M 1984 4856 
Q 1566 4138 1362 3434 
Q 1159 2731 1159 2009 
Q 1159 1288 1364 580 
Q 1569 -128 1984 -844 
L 1484 -844 
Q 1016 -109 783 600 
Q 550 1309 550 2009 
Q 550 2706 781 3412 
Q 1013 4119 1484 4856 
L 1984 4856 
z
" transform="scale(0.015625)"/>
       <path id="DejaVuSans-56" d="M 1831 0 
L 50 4666 
L 709 4666 
L 2188 738 
L 3669 4666 
L 4325 4666 
L 2547 0 
L 1831 0 
z
" transform="scale(0.015625)"/>
       <path id="DejaVuSans-29" d="M 513 4856 
L 1013 4856 
Q 1481 4119 1714 3412 
Q 1947 2706 1947 2009 
Q 1947 1309 1714 600 
Q 1481 -109 1013 -844 
L 513 -844 
Q 928 -128 1133 580 
Q 1338 1288 1338 2009 
Q 1338 2731 1133 3434 
Q 928 4138 513 4856 
z
" transform="scale(0.015625)"/>
      </defs>
      <use xlink:href="#DejaVuSans-45"/>
      <use xlink:href="#DejaVuSans-6e" x="63.183594"/>
      <use xlink:href="#DejaVuSans-65" x="126.5625"/>
      <use xlink:href="#DejaVuSans-72" x="188.085938"/>
      <use xlink:href="#DejaVuSans-67" x="227.449219"/>
      <use xlink:href="#DejaVuSans-79" x="290.925781"/>
      <use xlink:href="#DejaVuSans-20" x="350.105469"/>
      <use xlink:href="#DejaVuSans-28" x="381.892578"/>
      <use xlink:href="#DejaVuSans-65" x="420.90625"/>
      <use xlink:href="#DejaVuSans-56" x="482.429688"/>
      <use xlink:href="#DejaVuSans-29" x="550.837891"/>
     </g>
    </g>
   </g>
   <g id="line2d_13">
    <path d="M 57.6 250.929796 
L 61.455224 251.087435 
L 65.310447 251.707112 
L 69.165671 252.715983 
L 73.020895 254.059827 
L 76.876118 255.676453 
L 80.731342 257.497194 
L 84.586565 259.452252 
L 88.441789 261.47522 
L 92.297013 263.505799 
L 96.152236 265.490495 
L 100.00746 267.381709 
L 103.862684 269.135976 
L 107.717907 270.712294 
L 111.573131 272.071282 
L 115.428354 273.175662 
L 119.283578 273.99204 
L 123.138802 274.493566 
L 126.994025 274.662723 
L 130.646342 274.694072 
L 134.29866 274.788577 
L 137.950977 274.947733 
L 141.603294 275.174263 
L 145.255611 275.472346 
L 148.907928 275.847681 
L 152.560245 276.307116 
L 156.212562 276.857477 
L 159.864879 277.503216 
L 163.517197 278.242782 
L 167.169514 279.064368 
L 170.821831 279.942797 
L 174.474148 280.839611 
L 178.126465 281.707211 
L 181.778782 282.495541 
L 185.431099 283.158628 
L 189.083416 283.659034 
L 192.735734 283.969888 
L 196.388051 284.075253 
L 200.02279 283.973716 
L 203.65753 283.671178 
L 207.29227 283.173649 
L 210.927009 282.490844 
L 214.561749 281.635489 
L 218.196489 280.622131 
L 221.831229 279.465781 
L 225.465968 278.180903 
L 229.100708 276.781173 
L 232.735448 275.279916 
L 236.370187 273.690733 
L 240.004927 272.027787 
L 243.639667 270.305563 
L 247.274406 268.538322 
L 250.909146 266.739732 
L 254.543886 264.92314 
L 258.178625 263.102685 
L 261.813365 261.295111 
L 265.448105 259.521812 
L 269.082845 257.81046 
L 272.717584 256.195665 
L 276.352324 254.718273 
L 279.987064 253.423243 
L 283.621803 252.35634 
L 287.256543 251.560294 
L 290.891283 251.073406 
L 294.526022 250.929796 
L 297.960136 251.072151 
L 301.39425 251.494364 
L 304.828363 252.182077 
L 308.262477 253.1124 
L 311.696591 254.255403 
L 315.130704 255.576071 
L 318.564818 257.036577 
L 321.998932 258.598688 
L 325.433045 260.226103 
L 328.867159 261.886529 
L 332.301273 263.55333 
L 335.735386 265.206678 
L 339.1695 266.834181 
L 342.603613 268.431055 
L 346.037727 269.999922 
L 349.471841 271.550258 
L 352.905954 273.097355 
L 356.340068 274.660441 
L 359.774182 276.259474 
L 363.208295 277.910394 
L 366.642409 279.619503 
L 370.076523 281.37888 
L 373.510636 283.165109 
L 376.94475 284.942299 
L 380.378864 286.66819 
L 383.812977 288.300851 
L 387.247091 289.803951 
L 390.681204 291.14975 
L 394.115318 292.319967 
L 397.549432 293.305068 
L 400.983545 294.102557 
L 404.417659 294.714762 
L 407.851773 295.146506 
L 411.285886 295.402972 
L 414.72 295.488 
" clip-path="url(#p40d077ff88)" style="fill: none; stroke: #0000ff; stroke-opacity: 0.8; stroke-width: 1.5; stroke-linecap: square"/>
   </g>
   <g id="line2d_14">
    <path d="M 57.6 250.835544 
L 61.455224 250.876447 
L 65.310447 250.84604 
L 69.165671 250.793309 
L 73.020895 250.735012 
L 76.876118 250.684033 
L 80.731342 250.650909 
L 84.586565 250.641835 
L 88.441789 250.657324 
L 92.297013 250.692144 
L 96.152236 250.736691 
L 100.00746 250.779508 
L 103.862684 250.810362 
L 107.717907 250.823007 
L 111.573131 250.816824 
L 115.428354 250.7968 
L 119.283578 250.77181 
L 123.138802 250.751693 
L 126.994025 250.744031 
L 130.646342 250.808097 
L 134.29866 251.087982 
L 137.950977 251.577544 
L 141.603294 252.282092 
L 145.255611 253.205223 
L 148.907928 254.336622 
L 152.560245 255.645545 
L 156.212562 257.079458 
L 159.864879 258.568966 
L 163.517197 260.038097 
L 167.169514 261.41686 
L 170.821831 262.651975 
L 174.474148 263.71253 
L 178.126465 264.593682 
L 181.778782 265.571551 
L 185.431099 266.548874 
L 189.083416 267.245538 
L 192.735734 267.661255 
L 196.388051 267.799373 
L 200.02279 267.664704 
L 203.65753 267.255918 
L 207.29227 266.559533 
L 210.927009 265.555894 
L 214.561749 264.748686 
L 218.196489 264.062287 
L 221.831229 263.285966 
L 225.465968 262.433523 
L 229.100708 261.519181 
L 232.735448 260.557589 
L 236.370187 259.563991 
L 240.004927 258.554491 
L 243.639667 257.546288 
L 247.274406 256.55774 
L 250.909146 255.608085 
L 254.543886 254.716714 
L 258.178625 253.901935 
L 261.813365 253.179357 
L 265.448105 252.560173 
L 269.082845 252.049733 
L 272.717584 251.646825 
L 276.352324 251.343901 
L 279.987064 251.128315 
L 283.621803 250.984401 
L 287.256543 250.896041 
L 290.891283 250.849331 
L 294.526022 250.835544 
L 297.960136 250.841838 
L 301.39425 250.861625 
L 304.828363 250.897443 
L 308.262477 250.953375 
L 311.696591 251.034833 
L 315.130704 251.148255 
L 318.564818 251.300727 
L 321.998932 251.499527 
L 325.433045 251.751613 
L 328.867159 252.062963 
L 332.301273 252.438039 
L 335.735386 252.879266 
L 339.1695 253.386602 
L 342.603613 253.957338 
L 346.037727 254.586172 
L 349.471841 255.265573 
L 352.905954 255.986371 
L 356.340068 256.738479 
L 359.774182 257.511609 
L 363.208295 258.295866 
L 366.642409 259.082138 
L 370.076523 259.862248 
L 373.510636 260.628868 
L 376.94475 261.375266 
L 380.378864 262.094956 
L 383.812977 262.781336 
L 387.247091 263.427416 
L 390.681204 264.025665 
L 394.115318 264.56805 
L 397.549432 265.046274 
L 400.983545 265.451911 
L 404.417659 265.77701 
L 407.851773 266.014679 
L 411.285886 266.159553 
L 414.72 266.208221 
" clip-path="url(#p40d077ff88)" style="fill: none; stroke: #0000ff; stroke-opacity: 0.8; stroke-width: 1.5; stroke-linecap: square"/>
   </g>
   <g id="line2d_15">
    <path d="M 57.6 250.834873 
L 61.455224 250.821655 
L 65.310447 250.78344 
L 69.165671 250.728752 
L 73.020895 250.669006 
L 76.876118 250.616485 
L 80.731342 250.581616 
L 84.586565 250.570615 
L 88.441789 250.584075 
L 92.297013 250.61687 
L 96.152236 250.659485 
L 100.00746 250.700529 
L 103.862684 250.729797 
L 107.717907 250.741052 
L 111.573131 250.73368 
L 115.428354 250.712683 
L 119.283578 250.686963 
L 123.138802 250.666391 
L 126.994025 250.658573 
L 130.646342 250.634461 
L 134.29866 250.480259 
L 137.950977 250.217353 
L 141.603294 249.859053 
L 145.255611 249.414752 
L 148.907928 248.892243 
L 152.560245 248.29657 
L 156.212562 250.76479 
L 159.864879 253.634787 
L 163.517197 256.289545 
L 167.169514 258.700324 
L 170.821831 260.844281 
L 174.474148 262.70491 
L 178.126465 264.267162 
L 181.778782 265.255876 
L 185.431099 265.781473 
L 189.083416 266.141576 
L 192.735734 266.35257 
L 196.388051 266.422097 
L 200.02279 266.351807 
L 203.65753 266.142794 
L 207.29227 265.800175 
L 210.927009 265.332007 
L 214.561749 264.223197 
L 218.196489 262.542445 
L 221.831229 260.502386 
L 225.465968 258.103194 
L 229.100708 255.358044 
L 232.735448 252.292484 
L 236.370187 248.944326 
L 240.004927 248.078626 
L 243.639667 248.549882 
L 247.274406 248.94502 
L 250.909146 249.275634 
L 254.543886 249.55351 
L 258.178625 249.789296 
L 261.813365 249.991938 
L 265.448105 250.168362 
L 269.082845 250.323353 
L 272.717584 250.459637 
L 276.352324 250.578126 
L 279.987064 250.678302 
L 283.621803 250.758626 
L 287.256543 250.816684 
L 290.891283 250.846652 
L 294.526022 250.834873 
L 297.960136 250.841193 
L 301.39425 250.861029 
L 304.828363 250.896915 
L 308.262477 250.952931 
L 311.696591 251.034483 
L 315.130704 251.148006 
L 318.564818 251.300575 
L 321.998932 251.499446 
L 325.433045 251.751507 
L 328.867159 252.062779 
L 332.301273 252.437775 
L 335.735386 252.878926 
L 339.1695 253.386189 
L 342.603613 253.956854 
L 346.037727 254.585618 
L 349.471841 255.264948 
L 352.905954 255.985676 
L 356.340068 256.737716 
L 359.774182 257.510781 
L 363.208295 258.294981 
L 366.642409 259.081212 
L 370.076523 259.861305 
L 373.510636 260.627941 
L 376.94475 261.374394 
L 380.378864 262.094178 
L 383.812977 262.780692 
L 387.247091 263.426939 
L 390.681204 264.025373 
L 394.115318 264.567913 
L 397.549432 265.046073 
L 400.983545 265.451537 
L 404.417659 265.776477 
L 407.851773 266.014022 
L 411.285886 266.158817 
L 414.72 266.20746 
" clip-path="url(#p40d077ff88)" style="fill: none; stroke: #0000ff; stroke-opacity: 0.8; stroke-width: 1.5; stroke-linecap: square"/>
   </g>
   <g id="line2d_16">
    <path d="M 57.6 200.021936 
L 61.455224 200.236111 
L 65.310447 200.87162 
L 69.165671 201.90423 
L 73.020895 203.2873 
L 76.876118 204.951251 
L 80.731342 206.810756 
L 84.586565 208.776 
L 88.441789 210.762764 
L 92.297013 212.698947 
L 96.152236 214.529144 
L 100.00746 216.350352 
L 103.862684 218.911495 
L 107.717907 221.232699 
L 111.573131 223.207447 
L 115.428354 224.790732 
L 119.283578 225.947282 
L 123.138802 226.651515 
L 126.994025 226.887982 
L 130.646342 228.30904 
L 134.29866 231.192649 
L 137.950977 234.468633 
L 141.603294 237.843126 
L 145.255611 241.211022 
L 148.907928 244.515305 
L 152.560245 247.71277 
L 156.212562 247.628691 
L 159.864879 246.885632 
L 163.517197 246.060241 
L 167.169514 245.142719 
L 170.821831 244.122307 
L 174.474148 242.989326 
L 178.126465 241.737113 
L 181.778782 240.363528 
L 185.431099 238.871999 
L 189.083416 237.273174 
L 192.735734 235.597002 
L 196.388051 234.267525 
L 200.02279 235.589793 
L 203.65753 237.262816 
L 207.29227 238.864657 
L 210.927009 240.36573 
L 214.561749 241.753833 
L 218.196489 243.021484 
L 221.831229 244.164442 
L 225.465968 245.181571 
L 229.100708 246.074816 
L 232.735448 246.848964 
L 236.370187 247.509066 
L 240.004927 245.341962 
L 243.639667 241.55076 
L 247.274406 237.609431 
L 250.909146 233.569418 
L 254.543886 229.484171 
L 258.178625 225.411371 
L 261.813365 221.41429 
L 265.448105 217.561639 
L 269.082845 213.924992 
L 272.717584 210.574482 
L 276.352324 207.575839 
L 279.987064 204.99154 
L 283.621803 202.884342 
L 287.256543 201.317705 
L 290.891283 200.349639 
L 294.526022 200.021936 
L 297.960136 200.273516 
L 301.39425 201.015835 
L 304.828363 202.212882 
L 308.262477 203.809078 
L 311.696591 205.735919 
L 315.130704 207.919807 
L 318.564818 210.288984 
L 321.998932 212.778232 
L 325.433045 215.331227 
L 328.867159 217.901083 
L 332.301273 220.449753 
L 335.735386 222.94682 
L 339.1695 225.368031 
L 342.603613 228.550211 
L 346.037727 232.209777 
L 349.471841 235.691581 
L 352.905954 238.94447 
L 356.340068 241.913742 
L 359.774182 244.543952 
L 363.208295 246.784366 
L 366.642409 248.596274 
L 370.076523 249.960009 
L 373.510636 250.879029 
L 376.94475 251.379627 
L 380.378864 251.507062 
L 383.812977 251.320176 
L 387.247091 250.886275 
L 390.681204 250.276946 
L 394.115318 249.564702 
L 397.549432 248.820061 
L 400.983545 248.108804 
L 404.417659 247.489312 
L 407.851773 247.010067 
L 411.285886 246.707453 
L 414.72 246.604032 
" clip-path="url(#p40d077ff88)" style="fill: none; stroke: #0000ff; stroke-opacity: 0.8; stroke-width: 1.5; stroke-linecap: square"/>
   </g>
   <g id="line2d_17">
    <path d="M 57.6 200.021859 
L 61.455224 200.207152 
L 65.310447 200.837438 
L 69.165671 201.872589 
L 73.020895 203.259671 
L 76.876118 204.927906 
L 80.731342 206.79149 
L 84.586565 208.760425 
L 88.441789 210.750352 
L 92.297013 212.688659 
L 96.152236 214.517009 
L 100.00746 216.191288 
L 103.862684 217.679966 
L 107.717907 218.96166 
L 111.573131 220.022518 
L 115.428354 220.853907 
L 119.283578 221.450622 
L 123.138802 221.809667 
L 126.994025 221.929506 
L 130.646342 222.02172 
L 134.29866 222.243285 
L 137.950977 222.609341 
L 141.603294 223.111033 
L 145.255611 223.734506 
L 148.907928 224.462578 
L 152.560245 225.275347 
L 156.212562 226.150669 
L 159.864879 227.064697 
L 163.517197 227.992491 
L 167.169514 228.908676 
L 170.821831 229.788131 
L 174.474148 230.606684 
L 178.126465 231.341789 
L 181.778782 231.973155 
L 185.431099 232.483328 
L 189.083416 232.858186 
L 192.735734 233.087342 
L 196.388051 233.164784 
L 200.02279 233.085832 
L 203.65753 232.84978 
L 207.29227 232.458941 
L 210.927009 231.916868 
L 214.561749 231.227963 
L 218.196489 230.397063 
L 221.831229 229.429086 
L 225.465968 228.328826 
L 229.100708 227.100954 
L 232.735448 225.750243 
L 236.370187 224.282001 
L 240.004927 222.702669 
L 243.639667 221.020503 
L 247.274406 219.246281 
L 250.909146 217.393963 
L 254.543886 215.481266 
L 258.178625 213.530144 
L 261.813365 211.567172 
L 265.448105 209.623854 
L 269.082845 207.736842 
L 272.717584 205.947993 
L 276.352324 204.304076 
L 279.987064 202.855786 
L 283.621803 201.655592 
L 287.256543 200.754071 
L 290.891283 200.195705 
L 294.526022 200.021859 
L 297.960136 200.273436 
L 301.39425 201.015746 
L 304.828363 202.212783 
L 308.262477 203.808969 
L 311.696591 205.735804 
L 315.130704 207.91969 
L 318.564818 210.288866 
L 321.998932 212.778116 
L 325.433045 215.331113 
L 328.867159 217.900972 
L 332.301273 220.449646 
L 335.735386 222.946717 
L 339.1695 225.367935 
L 342.603613 227.693867 
L 346.037727 229.908323 
L 349.471841 231.998032 
L 352.905954 233.951784 
L 356.340068 235.760382 
L 359.774182 237.41676 
L 363.208295 238.916239 
L 366.642409 240.256793 
L 370.076523 241.439253 
L 373.510636 242.46736 
L 376.94475 243.347662 
L 380.378864 244.089223 
L 383.812977 244.703179 
L 387.247091 245.20218 
L 390.681204 245.599752 
L 394.115318 245.90966 
L 397.549432 246.145281 
L 400.983545 246.319037 
L 404.417659 246.441874 
L 407.851773 246.52282 
L 411.285886 246.568614 
L 414.72 246.583411 
" clip-path="url(#p40d077ff88)" style="fill: none; stroke: #0000ff; stroke-opacity: 0.8; stroke-width: 1.5; stroke-linecap: square"/>
   </g>
   <g id="line2d_18">
    <path d="M 57.6 199.962566 
L 61.455224 200.122183 
L 65.310447 200.515224 
L 69.165671 201.145048 
L 73.020895 201.997692 
L 76.876118 203.04738 
L 80.731342 204.261934 
L 84.586565 205.604223 
L 88.441789 207.123241 
L 92.297013 210.328242 
L 96.152236 213.390722 
L 100.00746 216.114516 
L 103.862684 217.665222 
L 107.717907 218.949002 
L 111.573131 220.009746 
L 115.428354 220.840936 
L 119.283578 221.437661 
L 123.138802 221.796827 
L 126.994025 221.916731 
L 130.646342 221.470309 
L 134.29866 220.891606 
L 137.950977 220.312057 
L 141.603294 219.634878 
L 145.255611 218.832571 
L 148.907928 217.909747 
L 152.560245 216.884318 
L 156.212562 215.781133 
L 159.864879 214.629174 
L 163.517197 214.35234 
L 167.169514 216.72961 
L 170.821831 219.060241 
L 174.474148 221.334131 
L 178.126465 223.546878 
L 181.778782 225.697071 
L 185.431099 227.783349 
L 189.083416 229.800392 
L 192.735734 231.72434 
L 196.388051 233.135483 
L 200.02279 231.734572 
L 203.65753 229.82533 
L 207.29227 227.828891 
L 210.927009 225.774041 
L 214.561749 223.672894 
L 218.196489 221.534425 
L 221.831229 219.366855 
L 225.465968 217.178915 
L 229.100708 214.983826 
L 232.735448 213.29081 
L 236.370187 213.350937 
L 240.004927 213.171631 
L 243.639667 212.692106 
L 247.274406 211.899333 
L 250.909146 210.788748 
L 254.543886 209.362371 
L 258.178625 207.629017 
L 261.813365 205.606172 
L 265.448105 203.324131 
L 269.082845 200.832681 
L 272.717584 199.4737 
L 276.352324 199.563677 
L 279.987064 199.683616 
L 283.621803 199.801394 
L 287.256543 199.897334 
L 290.891283 199.957526 
L 294.526022 199.962566 
L 297.960136 199.902787 
L 301.39425 199.726219 
L 304.828363 199.440793 
L 308.262477 199.05854 
L 311.696591 198.593982 
L 315.130704 198.444974 
L 318.564818 201.813652 
L 321.998932 205.413733 
L 325.433045 209.177854 
L 328.867159 213.045754 
L 332.301273 216.96372 
L 335.735386 220.883393 
L 339.1695 224.760006 
L 342.603613 227.69378 
L 346.037727 229.908246 
L 349.471841 231.997967 
L 352.905954 233.95173 
L 356.340068 235.760334 
L 359.774182 237.416714 
L 363.208295 238.916188 
L 366.642409 240.256735 
L 370.076523 241.439186 
L 373.510636 242.467286 
L 376.94475 243.347583 
L 380.378864 244.089142 
L 383.812977 244.703101 
L 387.247091 245.202107 
L 390.681204 245.599689 
L 394.115318 245.909609 
L 397.549432 246.145244 
L 400.983545 246.319013 
L 404.417659 246.441862 
L 407.851773 246.522817 
L 411.285886 246.568609 
L 414.72 246.583403 
" clip-path="url(#p40d077ff88)" style="fill: none; stroke: #0000ff; stroke-opacity: 0.8; stroke-width: 1.5; stroke-linecap: square"/>
   </g>
   <g id="line2d_19">
    <path d="M 57.6 187.470357 
L 61.455224 187.924983 
L 65.310447 189.356086 
L 69.165671 191.538884 
L 73.020895 194.253545 
L 76.876118 197.303582 
L 80.731342 200.535589 
L 84.586565 203.836728 
L 88.441789 207.033394 
L 92.297013 208.506112 
L 96.152236 209.977849 
L 100.00746 211.404187 
L 103.862684 212.742112 
L 107.717907 213.951269 
L 111.573131 214.99513 
L 115.428354 215.842062 
L 119.283578 216.466277 
L 123.138802 216.848663 
L 126.994025 216.977451 
L 130.646342 215.857721 
L 134.29866 213.177223 
L 137.950977 209.873077 
L 141.603294 206.366251 
L 145.255611 202.83152 
L 148.907928 204.896605 
L 152.560245 207.173565 
L 156.212562 209.54058 
L 159.864879 211.946613 
L 163.517197 213.459792 
L 167.169514 212.305305 
L 170.821831 211.197757 
L 174.474148 210.167838 
L 178.126465 209.24394 
L 181.778782 208.451358 
L 185.431099 207.811632 
L 189.083416 207.34203 
L 192.735734 207.055155 
L 196.388051 206.959085 
L 200.02279 207.091359 
L 203.65753 207.478886 
L 207.29227 208.086837 
L 210.927009 208.862702 
L 214.561749 209.740926 
L 218.196489 210.64921 
L 221.831229 211.514599 
L 225.465968 212.268289 
L 229.100708 212.845827 
L 232.735448 212.69793 
L 236.370187 210.545331 
L 240.004927 208.363747 
L 243.639667 206.207231 
L 247.274406 204.090829 
L 250.909146 202.257322 
L 254.543886 201.423338 
L 258.178625 200.642284 
L 261.813365 200.015456 
L 265.448105 199.624011 
L 269.082845 199.467533 
L 272.717584 198.208931 
L 276.352324 195.562522 
L 279.987064 193.034502 
L 283.621803 190.789832 
L 287.256543 189.005272 
L 290.891283 187.851128 
L 294.526022 187.470357 
L 297.960136 187.818876 
L 301.39425 188.845614 
L 304.828363 190.498846 
L 308.262477 192.705313 
L 311.696591 195.382059 
L 315.130704 198.062216 
L 318.564818 197.47695 
L 321.998932 196.848787 
L 325.433045 196.184 
L 328.867159 195.48398 
L 332.301273 195.096143 
L 335.735386 195.579771 
L 339.1695 195.896822 
L 342.603613 196.030389 
L 346.037727 195.969021 
L 349.471841 195.707276 
L 352.905954 195.245878 
L 356.340068 194.591475 
L 359.774182 193.756101 
L 363.208295 192.756486 
L 366.642409 191.613346 
L 370.076523 190.350749 
L 373.510636 188.995576 
L 376.94475 187.577081 
L 380.378864 186.126467 
L 383.812977 184.676422 
L 387.247091 183.260531 
L 390.681204 181.912524 
L 394.115318 180.665381 
L 397.549432 179.55031 
L 400.983545 178.595711 
L 404.417659 177.826193 
L 407.851773 177.261742 
L 411.285886 176.91707 
L 414.72 176.80117 
" clip-path="url(#p40d077ff88)" style="fill: none; stroke: #0000ff; stroke-opacity: 0.8; stroke-width: 1.5; stroke-linecap: square"/>
   </g>
   <g id="line2d_20">
    <path d="M 57.6 187.392898 
L 61.455224 187.580681 
L 65.310447 187.978853 
L 69.165671 188.566645 
L 73.020895 189.273967 
L 76.876118 190.042285 
L 80.731342 190.833186 
L 84.586565 191.624076 
L 88.441789 192.400917 
L 92.297013 193.152879 
L 96.152236 193.869646 
L 100.00746 194.540505 
L 103.862684 195.154273 
L 107.717907 195.69956 
L 111.573131 196.16514 
L 115.428354 196.540433 
L 119.283578 196.81609 
L 123.138802 196.984696 
L 126.994025 197.041452 
L 130.646342 197.307593 
L 134.29866 198.074987 
L 137.950977 199.28276 
L 141.603294 200.873935 
L 145.255611 202.772228 
L 148.907928 203.207077 
L 152.560245 204.398294 
L 156.212562 205.376671 
L 159.864879 206.123905 
L 163.517197 206.650189 
L 167.169514 206.984056 
L 170.821831 207.16321 
L 174.474148 207.227656 
L 178.126465 207.215272 
L 181.778782 207.159352 
L 185.431099 207.08744 
L 189.083416 207.020926 
L 192.735734 206.974986 
L 196.388051 206.958259 
L 200.02279 206.937383 
L 203.65753 206.874594 
L 207.29227 206.776926 
L 210.927009 206.652398 
L 214.561749 206.507959 
L 218.196489 206.346547 
L 221.831229 206.164846 
L 225.465968 205.952409 
L 229.100708 205.692491 
L 232.735448 205.364589 
L 236.370187 204.948339 
L 240.004927 204.428141 
L 243.639667 203.797901 
L 247.274406 203.065512 
L 250.909146 202.028719 
L 254.543886 200.035509 
L 258.178625 198.126411 
L 261.813365 196.317272 
L 265.448105 194.624601 
L 269.082845 193.065614 
L 272.717584 191.722911 
L 276.352324 190.708324 
L 279.987064 189.693365 
L 283.621803 188.773889 
L 287.256543 188.037119 
L 290.891283 187.558873 
L 294.526022 187.392898 
L 297.960136 187.526907 
L 301.39425 187.91363 
L 304.828363 188.512637 
L 308.262477 189.270635 
L 311.696591 190.132939 
L 315.130704 191.049749 
L 318.564818 191.977654 
L 321.998932 192.878685 
L 325.433045 193.71891 
L 328.867159 194.467454 
L 332.301273 195.095894 
L 335.735386 195.579531 
L 339.1695 195.896604 
L 342.603613 196.030203 
L 346.037727 195.96887 
L 349.471841 195.707156 
L 352.905954 195.245781 
L 356.340068 194.591391 
L 359.774182 193.756021 
L 363.208295 192.756406 
L 366.642409 191.613264 
L 370.076523 190.350662 
L 373.510636 188.995484 
L 376.94475 187.576983 
L 380.378864 186.126364 
L 383.812977 184.676317 
L 387.247091 183.260425 
L 390.681204 181.912419 
L 394.115318 180.665278 
L 397.549432 179.55021 
L 400.983545 178.595614 
L 404.417659 177.826099 
L 407.851773 177.261651 
L 411.285886 176.916979 
L 414.72 176.801081 
" clip-path="url(#p40d077ff88)" style="fill: none; stroke: #0000ff; stroke-opacity: 0.8; stroke-width: 1.5; stroke-linecap: square"/>
   </g>
   <g id="line2d_21">
    <path d="M 57.6 187.392373 
L 61.455224 187.532119 
L 65.310447 187.925754 
L 69.165671 188.510808 
L 73.020895 189.215586 
L 76.876118 189.981738 
L 80.731342 190.771032 
L 84.586565 191.560904 
L 88.441789 192.337241 
L 92.297013 193.089098 
L 96.152236 193.806044 
L 100.00746 194.477267 
L 103.862684 195.091501 
L 107.717907 195.637288 
L 111.573131 196.103348 
L 115.428354 196.479055 
L 119.283578 196.755028 
L 123.138802 196.923827 
L 126.994025 196.980639 
L 130.646342 197.236236 
L 134.29866 197.975173 
L 137.950977 199.098718 
L 141.603294 200.444874 
L 145.255611 201.856578 
L 148.907928 199.36654 
L 152.560245 196.050987 
L 156.212562 192.946342 
L 159.864879 190.102893 
L 163.517197 187.555812 
L 167.169514 185.323696 
L 170.821831 183.40935 
L 174.474148 181.803011 
L 178.126465 180.487168 
L 181.778782 179.441645 
L 185.431099 178.6477 
L 189.083416 178.090495 
L 192.735734 177.75992 
L 196.388051 177.650325 
L 200.02279 177.755058 
L 203.65753 178.067742 
L 207.29227 178.583508 
L 210.927009 179.293317 
L 214.561749 180.182959 
L 218.196489 181.232306 
L 221.831229 182.41513 
L 225.465968 183.699662 
L 229.100708 185.049814 
L 232.735448 186.426841 
L 236.370187 187.791103 
L 240.004927 189.103515 
L 243.639667 190.326242 
L 247.274406 191.422049 
L 250.909146 192.351549 
L 254.543886 193.067511 
L 258.178625 193.507606 
L 261.813365 193.59746 
L 265.448105 193.29035 
L 269.082845 192.626534 
L 272.717584 191.658261 
L 276.352324 190.42115 
L 279.987064 189.373244 
L 283.621803 188.533175 
L 287.256543 187.917924 
L 290.891283 187.539671 
L 294.526022 187.392373 
L 297.960136 187.526386 
L 301.39425 187.913153 
L 304.828363 188.512236 
L 308.262477 189.27033 
L 311.696591 190.132733 
L 315.130704 191.049618 
L 318.564818 191.977533 
L 321.998932 192.878521 
L 325.433045 193.7187 
L 328.867159 194.467215 
L 332.301273 194.745448 
L 335.735386 193.961426 
L 339.1695 193.122837 
L 342.603613 192.220527 
L 346.037727 191.247451 
L 349.471841 190.200716 
L 352.905954 189.083203 
L 356.340068 187.904529 
L 359.774182 186.681206 
L 363.208295 185.435947 
L 366.642409 184.196159 
L 370.076523 182.991812 
L 373.510636 181.852902 
L 376.94475 180.806821 
L 380.378864 179.875933 
L 383.812977 179.075655 
L 387.247091 178.413271 
L 390.681204 177.887621 
L 394.115318 177.489715 
L 397.549432 177.204198 
L 400.983545 177.0115 
L 404.417659 176.890422 
L 407.851773 176.82086 
L 411.285886 176.786342 
L 414.72 176.776085 
" clip-path="url(#p40d077ff88)" style="fill: none; stroke: #0000ff; stroke-opacity: 0.8; stroke-width: 1.5; stroke-linecap: square"/>
   </g>
   <g id="line2d_22">
    <path d="M 57.6 149.594714 
L 61.455224 149.577208 
L 65.310447 149.525263 
L 69.165671 149.440445 
L 73.020895 149.325329 
L 76.876118 149.183412 
L 80.731342 149.019005 
L 84.586565 148.837105 
L 88.441789 148.643236 
L 92.297013 148.44329 
L 96.152236 148.243341 
L 100.00746 148.049465 
L 103.862684 147.867554 
L 107.717907 147.703135 
L 111.573131 147.561205 
L 115.428354 147.446076 
L 119.283578 147.361247 
L 123.138802 147.309296 
L 126.994025 147.291802 
L 130.646342 147.0179 
L 134.29866 146.214454 
L 137.950977 144.931944 
L 141.603294 143.242827 
L 145.255611 141.230556 
L 148.907928 138.981494 
L 152.560245 136.580277 
L 156.212562 134.107447 
L 159.864879 131.638031 
L 163.517197 129.240277 
L 167.169514 126.974352 
L 170.821831 124.891155 
L 174.474148 123.031529 
L 178.126465 121.426129 
L 181.778782 120.096085 
L 185.431099 119.054403 
L 189.083416 118.307935 
L 192.735734 117.859539 
L 196.388051 117.710235 
L 200.02279 117.798555 
L 203.65753 118.062997 
L 207.29227 118.501957 
L 210.927009 119.112636 
L 214.561749 119.890862 
L 218.196489 120.830903 
L 221.831229 121.925285 
L 225.465968 123.164677 
L 229.100708 124.537839 
L 232.735448 126.031637 
L 236.370187 127.631104 
L 240.004927 129.319533 
L 243.639667 131.078558 
L 247.274406 132.888229 
L 250.909146 134.727064 
L 254.543886 136.572075 
L 258.178625 138.398799 
L 261.813365 140.181353 
L 265.448105 141.892514 
L 269.082845 143.503882 
L 272.717584 144.98615 
L 276.352324 146.309546 
L 279.987064 147.44456 
L 283.621803 148.363062 
L 287.256543 149.039891 
L 290.891283 149.454836 
L 294.526022 149.594714 
L 297.960136 149.4336 
L 301.39425 148.962421 
L 304.828363 148.212745 
L 308.262477 147.226194 
L 311.696591 146.045033 
L 315.130704 144.706652 
L 318.564818 143.241869 
L 321.998932 141.67551 
L 325.433045 140.027825 
L 328.867159 138.315958 
L 332.301273 136.555161 
L 335.735386 134.759698 
L 339.1695 132.943469 
L 342.603613 131.120377 
L 346.037727 129.304447 
L 349.471841 127.50973 
L 352.905954 125.750002 
L 356.340068 124.038327 
L 359.774182 122.386558 
L 363.208295 120.804863 
L 366.642409 119.301393 
L 370.076523 117.882149 
L 373.510636 116.551103 
L 376.94475 115.310571 
L 380.378864 114.161788 
L 383.812977 113.105595 
L 387.247091 112.143127 
L 390.681204 111.276386 
L 394.115318 110.508586 
L 397.549432 109.84422 
L 400.983545 109.288807 
L 404.417659 108.848372 
L 407.851773 108.528745 
L 411.285886 108.3348 
L 414.72 108.269773 
" clip-path="url(#p40d077ff88)" style="fill: none; stroke: #0000ff; stroke-opacity: 0.8; stroke-width: 1.5; stroke-linecap: square"/>
   </g>
   <g id="line2d_23">
    <path d="M 57.6 149.5947 
L 61.455224 149.248568 
L 65.310447 148.240026 
L 69.165671 146.648788 
L 73.020895 144.583126 
L 76.876118 142.160247 
L 80.731342 139.494871 
L 84.586565 136.694773 
L 88.441789 133.859453 
L 92.297013 131.666391 
L 96.152236 131.659762 
L 100.00746 131.653914 
L 103.862684 131.648723 
L 107.717907 131.644158 
L 111.573131 131.640242 
L 115.428354 131.637043 
L 119.283578 131.634654 
L 123.138802 131.633167 
L 126.994025 131.632648 
L 130.646342 131.320542 
L 134.29866 130.429445 
L 137.950977 129.081857 
L 141.603294 127.444965 
L 145.255611 125.692813 
L 148.907928 123.97474 
L 152.560245 122.396276 
L 156.212562 121.014603 
L 159.864879 119.846261 
L 163.517197 118.880972 
L 167.169514 118.095196 
L 170.821831 117.685288 
L 174.474148 117.69241 
L 178.126465 117.698185 
L 181.778782 117.702687 
L 185.431099 117.706021 
L 189.083416 117.7083 
L 192.735734 117.709623 
L 196.388051 117.709857 
L 200.02279 117.769204 
L 203.65753 117.948024 
L 207.29227 118.248589 
L 210.927009 118.674455 
L 214.561749 119.230125 
L 218.196489 119.920554 
L 221.831229 120.750533 
L 225.465968 121.723964 
L 229.100708 122.843067 
L 232.735448 124.1076 
L 236.370187 125.51414 
L 240.004927 127.055519 
L 243.639667 128.720442 
L 247.274406 130.493339 
L 250.909146 132.354413 
L 254.543886 134.279849 
L 258.178625 136.242103 
L 261.813365 138.210157 
L 265.448105 140.149688 
L 269.082845 142.023074 
L 272.717584 143.789325 
L 276.352324 145.404128 
L 279.987064 146.820398 
L 283.621803 147.989872 
L 287.256543 148.866287 
L 290.891283 149.410204 
L 294.526022 149.5947 
L 297.960136 149.393777 
L 301.39425 148.807609 
L 304.828363 147.880918 
L 308.262477 146.674166 
L 311.696591 145.250722 
L 315.130704 143.668086 
L 318.564818 141.973958 
L 321.998932 140.20578 
L 325.433045 138.39205 
L 328.867159 136.554236 
L 332.301273 134.708663 
L 335.735386 132.868106 
L 339.1695 131.043035 
L 342.603613 129.242506 
L 346.037727 127.474752 
L 349.471841 125.74754 
L 352.905954 124.068351 
L 356.340068 122.444456 
L 359.774182 120.882921 
L 363.208295 119.390592 
L 366.642409 117.974051 
L 370.076523 116.639554 
L 373.510636 115.392928 
L 376.94475 114.239438 
L 380.378864 113.183615 
L 383.812977 112.229069 
L 387.247091 111.378327 
L 390.681204 110.632718 
L 394.115318 109.99236 
L 397.549432 109.456267 
L 400.983545 109.022585 
L 404.417659 108.688941 
L 407.851773 108.452859 
L 411.285886 108.312189 
L 414.72 108.26547 
" clip-path="url(#p40d077ff88)" style="fill: none; stroke: #0000ff; stroke-opacity: 0.8; stroke-width: 1.5; stroke-linecap: square"/>
   </g>
   <g id="line2d_24">
    <path d="M 57.6 149.594647 
L 61.455224 149.248547 
L 65.310447 148.239913 
L 69.165671 146.648503 
L 73.020895 144.582669 
L 76.876118 142.159643 
L 80.731342 139.494165 
L 84.586565 136.694013 
L 88.441789 133.858691 
L 92.297013 131.079319 
L 96.152236 128.4344 
L 100.00746 125.992715 
L 103.862684 123.808855 
L 107.717907 121.923363 
L 111.573131 120.36331 
L 115.428354 119.144158 
L 119.283578 118.272658 
L 123.138802 117.750255 
L 126.994025 117.576286 
L 130.646342 117.579685 
L 134.29866 117.586933 
L 137.950977 117.589099 
L 141.603294 117.597627 
L 145.255611 117.608216 
L 148.907928 117.619913 
L 152.560245 117.632146 
L 156.212562 117.644376 
L 159.864879 117.656131 
L 163.517197 117.667032 
L 167.169514 117.676806 
L 170.821831 117.46187 
L 174.474148 116.955897 
L 178.126465 116.556457 
L 181.778782 116.247503 
L 185.431099 116.017355 
L 189.083416 115.857982 
L 192.735734 115.764249 
L 196.388051 115.733317 
L 200.02279 115.764266 
L 203.65753 115.857875 
L 207.29227 116.016194 
L 210.927009 116.242464 
L 214.561749 116.541331 
L 218.196489 116.920186 
L 221.831229 117.393192 
L 225.465968 117.991284 
L 229.100708 118.7774 
L 232.735448 119.827127 
L 236.370187 121.148891 
L 240.004927 122.692118 
L 243.639667 124.41033 
L 247.274406 126.271253 
L 250.909146 128.249618 
L 254.543886 130.322866 
L 258.178625 132.469296 
L 261.813365 134.666856 
L 265.448105 136.891589 
L 269.082845 139.115214 
L 272.717584 141.301602 
L 276.352324 143.402085 
L 279.987064 145.350012 
L 283.621803 147.056161 
L 287.256543 148.409191 
L 290.891283 149.288464 
L 294.526022 149.594647 
L 297.960136 149.393763 
L 301.39425 148.80759 
L 304.828363 147.880895 
L 308.262477 146.674139 
L 311.696591 145.250694 
L 315.130704 143.668057 
L 318.564818 141.97393 
L 321.998932 140.20575 
L 325.433045 138.392019 
L 328.867159 136.554204 
L 332.301273 134.70863 
L 335.735386 132.868074 
L 339.1695 131.043006 
L 342.603613 129.24248 
L 346.037727 127.474729 
L 349.471841 125.747519 
L 352.905954 124.068331 
L 356.340068 122.444437 
L 359.774182 120.882903 
L 363.208295 119.390574 
L 366.642409 117.974035 
L 370.076523 116.639538 
L 373.510636 115.392913 
L 376.94475 114.239423 
L 380.378864 113.183599 
L 383.812977 112.229054 
L 387.247091 111.378311 
L 390.681204 110.632701 
L 394.115318 109.992342 
L 397.549432 109.456247 
L 400.983545 109.022562 
L 404.417659 108.688916 
L 407.851773 108.452833 
L 411.285886 108.312161 
L 414.72 108.265442 
" clip-path="url(#p40d077ff88)" style="fill: none; stroke: #0000ff; stroke-opacity: 0.8; stroke-width: 1.5; stroke-linecap: square"/>
   </g>
   <g id="line2d_25">
    <path d="M 57.6 131.72928 
L 61.455224 131.727756 
L 65.310447 131.723469 
L 69.165671 131.716895 
L 73.020895 131.70873 
L 76.876118 131.69973 
L 80.731342 131.690575 
L 84.586565 131.681774 
L 88.441789 131.673629 
L 92.297013 131.078472 
L 96.152236 128.433673 
L 100.00746 125.992067 
L 103.862684 123.808296 
L 107.717907 121.922897 
L 111.573131 120.362934 
L 115.428354 119.143862 
L 119.283578 118.272425 
L 123.138802 117.750062 
L 126.994025 117.576107 
L 130.646342 117.577634 
L 134.29866 117.581867 
L 137.950977 117.58812 
L 141.603294 117.569893 
L 145.255611 117.512589 
L 148.907928 117.396851 
L 152.560245 117.204748 
L 156.212562 116.923811 
L 159.864879 116.550489 
L 163.517197 116.092475 
L 167.169514 115.569022 
L 170.821831 115.008836 
L 174.474148 114.44598 
L 178.126465 113.914883 
L 181.778782 113.44587 
L 185.431099 113.062322 
L 189.083416 112.779929 
L 192.735734 112.607709 
L 196.388051 112.549907 
L 200.02279 112.607821 
L 203.65753 112.782272 
L 207.29227 113.075309 
L 210.927009 113.489952 
L 214.561749 114.029202 
L 218.196489 114.693729 
L 221.831229 115.476761 
L 225.465968 116.353012 
L 229.100708 117.262477 
L 232.735448 118.129034 
L 236.370187 118.939775 
L 240.004927 119.736679 
L 243.639667 120.553617 
L 247.274406 121.406553 
L 250.909146 122.301083 
L 254.543886 123.236919 
L 258.178625 124.209498 
L 261.813365 125.21026 
L 265.448105 126.226327 
L 269.082845 127.23993 
L 272.717584 128.227786 
L 276.352324 129.160743 
L 279.987064 130.004096 
L 283.621803 130.719148 
L 287.256543 131.266537 
L 290.891283 131.611362 
L 294.526022 131.72928 
L 297.960136 131.519244 
L 301.39425 130.89781 
L 304.828363 129.889422 
L 308.262477 128.530426 
L 311.696591 126.863921 
L 315.130704 124.934706 
L 318.564818 122.78525 
L 321.998932 120.453107 
L 325.433045 117.969718 
L 328.867159 115.360347 
L 332.301273 112.644845 
L 335.735386 109.838899 
L 339.1695 106.955517 
L 342.603613 104.006545 
L 346.037727 101.004044 
L 349.471841 97.961442 
L 352.905954 94.89436 
L 356.340068 91.821078 
L 359.774182 88.76261 
L 363.208295 85.742398 
L 366.642409 82.785687 
L 370.076523 79.918658 
L 373.510636 77.167421 
L 376.94475 74.557012 
L 380.378864 72.1105 
L 383.812977 69.848315 
L 387.247091 67.787865 
L 390.681204 65.943455 
L 394.115318 64.326474 
L 397.549432 62.945758 
L 400.983545 61.808036 
L 404.417659 60.918336 
L 407.851773 60.280325 
L 411.285886 59.896518 
L 414.72 59.768398 
" clip-path="url(#p40d077ff88)" style="fill: none; stroke: #0000ff; stroke-opacity: 0.8; stroke-width: 1.5; stroke-linecap: square"/>
   </g>
   <g id="line2d_26">
    <path d="M 57.6 131.729167 
L 61.455224 131.206667 
L 65.310447 129.717061 
L 69.165671 127.456775 
L 73.020895 124.663965 
L 76.876118 121.5579 
L 80.731342 118.31298 
L 84.586565 115.056809 
L 88.441789 111.878635 
L 92.297013 108.840337 
L 96.152236 105.986684 
L 100.00746 103.353558 
L 103.862684 100.973666 
L 107.717907 98.879657 
L 111.573131 97.104835 
L 115.428354 95.681982 
L 119.283578 94.640963 
L 123.138802 94.005856 
L 126.994025 93.792328 
L 130.646342 93.612417 
L 134.29866 93.066543 
L 137.950977 92.138596 
L 141.603294 90.809455 
L 145.255611 89.068275 
L 148.907928 86.925609 
L 152.560245 84.423306 
L 156.212562 81.636073 
L 159.864879 78.663767 
L 163.517197 75.618495 
L 167.169514 72.612 
L 170.821831 69.746665 
L 174.474148 67.110634 
L 178.126465 64.776118 
L 181.778782 62.79973 
L 185.431099 61.223907 
L 189.083416 60.078828 
L 192.735734 59.384348 
L 196.388051 59.151648 
L 200.02279 59.381098 
L 203.65753 60.066635 
L 207.29227 61.199895 
L 210.927009 62.766938 
L 214.561749 64.748165 
L 218.196489 67.118143 
L 221.831229 69.84541 
L 225.465968 72.892463 
L 229.100708 76.216167 
L 232.735448 79.76878 
L 236.370187 83.499643 
L 240.004927 87.357374 
L 243.639667 91.29225 
L 247.274406 95.258347 
L 250.909146 99.215003 
L 254.543886 103.127196 
L 258.178625 106.964607 
L 261.813365 110.699277 
L 265.448105 114.302023 
L 269.082845 117.738036 
L 272.717584 120.962333 
L 276.352324 123.916011 
L 279.987064 126.52454 
L 283.621803 128.699684 
L 287.256543 130.346712 
L 290.891283 131.377729 
L 294.526022 131.729167 
L 297.960136 131.519139 
L 301.39425 130.897721 
L 304.828363 129.889353 
L 308.262477 128.530371 
L 311.696591 126.863863 
L 315.130704 124.934628 
L 318.564818 122.78515 
L 321.998932 120.45299 
L 325.433045 117.96959 
L 328.867159 115.360217 
L 332.301273 112.644718 
L 335.735386 109.838778 
L 339.1695 106.955403 
L 342.603613 104.006433 
L 346.037727 101.003934 
L 349.471841 97.961336 
L 352.905954 94.89426 
L 356.340068 91.820984 
L 359.774182 88.762512 
L 363.208295 85.742284 
L 366.642409 82.785552 
L 370.076523 79.918502 
L 373.510636 77.167254 
L 376.94475 74.556841 
L 380.378864 72.110319 
L 383.812977 69.8481 
L 387.247091 67.787584 
L 390.681204 65.943082 
L 394.115318 64.325996 
L 397.549432 62.945176 
L 400.983545 61.80736 
L 404.417659 60.917588 
L 407.851773 60.279533 
L 411.285886 59.895717 
L 414.72 59.767624 
" clip-path="url(#p40d077ff88)" style="fill: none; stroke: #0000ff; stroke-opacity: 0.8; stroke-width: 1.5; stroke-linecap: square"/>
   </g>
   <g id="line2d_27">
    <path d="M 57.6 307.584 
L 57.6 41.472 
" clip-path="url(#p40d077ff88)" style="fill: none; stroke: #808080; stroke-width: 0.6; stroke-linecap: square"/>
   </g>
   <g id="line2d_28">
    <path d="M 126.994025 307.584 
L 126.994025 41.472 
" clip-path="url(#p40d077ff88)" style="fill: none; stroke: #808080; stroke-width: 0.6; stroke-linecap: square"/>
   </g>
   <g id="line2d_29">
    <path d="M 196.388051 307.584 
L 196.388051 41.472 
" clip-path="url(#p40d077ff88)" style="fill: none; stroke: #808080; stroke-width: 0.6; stroke-linecap: square"/>
   </g>
   <g id="line2d_30">
    <path d="M 294.526022 307.584 
L 294.526022 41.472 
" clip-path="url(#p40d077ff88)" style="fill: none; stroke: #808080; stroke-width: 0.6; stroke-linecap: square"/>
   </g>
   <g id="line2d_31">
    <path d="M 414.72 307.584 
L 414.72 41.472 
" clip-path="url(#p40d077ff88)" style="fill: none; stroke: #808080; stroke-width: 0.6; stroke-linecap: square"/>
   </g>
   <g id="line2d_32">
    <path d="M 57.6 131.72928 
L 61.455224 131.728459 
L 65.310447 131.726044 
L 69.165671 131.722095 
L 73.020895 131.716731 
L 76.876118 131.710115 
L 80.731342 131.702449 
L 84.586565 131.693965 
L 88.441789 131.684922 
L 92.297013 131.675593 
L 96.152236 131.666263 
L 100.00746 131.657215 
L 103.862684 131.648723 
L 107.717907 131.641046 
L 111.573131 131.634417 
L 115.428354 131.629038 
L 119.283578 131.625072 
L 123.138802 131.622639 
L 126.994025 131.621813 
L 130.646342 131.405461 
L 134.29866 130.771961 
L 137.950977 129.766846 
L 141.603294 128.462155 
L 145.255611 126.949914 
L 148.907928 125.332222 
L 152.560245 123.708687 
L 156.212562 122.163815 
L 159.864879 120.758054 
L 163.517197 119.525174 
L 167.169514 118.475781 
L 170.821831 117.604264 
L 174.474148 116.896044 
L 178.126465 116.333253 
L 181.778782 115.898367 
L 185.431099 115.576163 
L 189.083416 115.354595 
L 192.735734 115.225071 
L 196.388051 115.18247 
L 200.02279 115.224544 
L 203.65753 115.350782 
L 207.29227 115.561125 
L 210.927009 115.855378 
L 214.561749 116.233068 
L 218.196489 116.693263 
L 221.831229 117.234355 
L 225.465968 117.853841 
L 229.100708 118.548089 
L 232.735448 119.312136 
L 236.370187 120.139516 
L 240.004927 121.022138 
L 243.639667 121.950229 
L 247.274406 122.912349 
L 250.909146 123.895487 
L 254.543886 124.885235 
L 258.178625 125.866046 
L 261.813365 126.821556 
L 265.448105 127.734978 
L 269.082845 128.589533 
L 272.717584 129.368918 
L 276.352324 130.057781 
L 279.987064 130.642189 
L 283.621803 131.110065 
L 287.256543 131.451575 
L 290.891283 131.659454 
L 294.526022 131.72928 
L 297.960136 131.605022 
L 301.39425 131.232346 
L 304.828363 130.611582 
L 308.262477 129.7434 
L 311.696591 128.628984 
L 315.130704 127.270269 
L 318.564818 125.670212 
L 321.998932 123.833096 
L 325.433045 121.764841 
L 328.867159 119.473298 
L 332.301273 116.968525 
L 335.735386 114.263009 
L 339.1695 111.371839 
L 342.603613 108.312798 
L 346.037727 105.106391 
L 349.471841 101.775794 
L 352.905954 98.346618 
L 356.340068 94.846771 
L 359.774182 91.306141 
L 363.208295 87.756226 
L 366.642409 84.229718 
L 370.076523 80.760049 
L 373.510636 77.380916 
L 376.94475 74.125796 
L 380.378864 71.027455 
L 383.812977 68.117463 
L 387.247091 65.425745 
L 390.681204 62.980186 
L 394.115318 60.806258 
L 397.549432 58.926688 
L 400.983545 57.361176 
L 404.417659 56.126153 
L 407.851773 55.234597 
L 411.285886 54.695877 
L 414.72 54.515657 
" clip-path="url(#p40d077ff88)" style="fill: none; stroke: #008000; stroke-opacity: 0.5; stroke-width: 1.5; stroke-linecap: square"/>
    <defs>
     <path id="m8d7b704bf5" d="M 0 3 
C 0.795609 3 1.55874 2.683901 2.12132 2.12132 
C 2.683901 1.55874 3 0.795609 3 0 
C 3 -0.795609 2.683901 -1.55874 2.12132 -2.12132 
C 1.55874 -2.683901 0.795609 -3 0 -3 
C -0.795609 -3 -1.55874 -2.683901 -2.12132 -2.12132 
C -2.683901 -1.55874 -3 -0.795609 -3 0 
C -3 0.795609 -2.683901 1.55874 -2.12132 2.12132 
C -1.55874 2.683901 -0.795609 3 0 3 
z
" style="stroke: #008000; stroke-opacity: 0.5"/>
    </defs>
    <g clip-path="url(#p40d077ff88)">
     <use xlink:href="#m8d7b704bf5" x="57.6" y="131.72928" style="fill-opacity: 0; stroke: #008000; stroke-opacity: 0.5"/>
     <use xlink:href="#m8d7b704bf5" x="61.455224" y="131.728459" style="fill-opacity: 0; stroke: #008000; stroke-opacity: 0.5"/>
     <use xlink:href="#m8d7b704bf5" x="65.310447" y="131.726044" style="fill-opacity: 0; stroke: #008000; stroke-opacity: 0.5"/>
     <use xlink:href="#m8d7b704bf5" x="69.165671" y="131.722095" style="fill-opacity: 0; stroke: #008000; stroke-opacity: 0.5"/>
     <use xlink:href="#m8d7b704bf5" x="73.020895" y="131.716731" style="fill-opacity: 0; stroke: #008000; stroke-opacity: 0.5"/>
     <use xlink:href="#m8d7b704bf5" x="76.876118" y="131.710115" style="fill-opacity: 0; stroke: #008000; stroke-opacity: 0.5"/>
     <use xlink:href="#m8d7b704bf5" x="80.731342" y="131.702449" style="fill-opacity: 0; stroke: #008000; stroke-opacity: 0.5"/>
     <use xlink:href="#m8d7b704bf5" x="84.586565" y="131.693965" style="fill-opacity: 0; stroke: #008000; stroke-opacity: 0.5"/>
     <use xlink:href="#m8d7b704bf5" x="88.441789" y="131.684922" style="fill-opacity: 0; stroke: #008000; stroke-opacity: 0.5"/>
     <use xlink:href="#m8d7b704bf5" x="92.297013" y="131.675593" style="fill-opacity: 0; stroke: #008000; stroke-opacity: 0.5"/>
     <use xlink:href="#m8d7b704bf5" x="96.152236" y="131.666263" style="fill-opacity: 0; stroke: #008000; stroke-opacity: 0.5"/>
     <use xlink:href="#m8d7b704bf5" x="100.00746" y="131.657215" style="fill-opacity: 0; stroke: #008000; stroke-opacity: 0.5"/>
     <use xlink:href="#m8d7b704bf5" x="103.862684" y="131.648723" style="fill-opacity: 0; stroke: #008000; stroke-opacity: 0.5"/>
     <use xlink:href="#m8d7b704bf5" x="107.717907" y="131.641046" style="fill-opacity: 0; stroke: #008000; stroke-opacity: 0.5"/>
     <use xlink:href="#m8d7b704bf5" x="111.573131" y="131.634417" style="fill-opacity: 0; stroke: #008000; stroke-opacity: 0.5"/>
     <use xlink:href="#m8d7b704bf5" x="115.428354" y="131.629038" style="fill-opacity: 0; stroke: #008000; stroke-opacity: 0.5"/>
     <use xlink:href="#m8d7b704bf5" x="119.283578" y="131.625072" style="fill-opacity: 0; stroke: #008000; stroke-opacity: 0.5"/>
     <use xlink:href="#m8d7b704bf5" x="123.138802" y="131.622639" style="fill-opacity: 0; stroke: #008000; stroke-opacity: 0.5"/>
     <use xlink:href="#m8d7b704bf5" x="126.994025" y="131.621813" style="fill-opacity: 0; stroke: #008000; stroke-opacity: 0.5"/>
     <use xlink:href="#m8d7b704bf5" x="130.646342" y="131.405461" style="fill-opacity: 0; stroke: #008000; stroke-opacity: 0.5"/>
     <use xlink:href="#m8d7b704bf5" x="134.29866" y="130.771961" style="fill-opacity: 0; stroke: #008000; stroke-opacity: 0.5"/>
     <use xlink:href="#m8d7b704bf5" x="137.950977" y="129.766846" style="fill-opacity: 0; stroke: #008000; stroke-opacity: 0.5"/>
     <use xlink:href="#m8d7b704bf5" x="141.603294" y="128.462155" style="fill-opacity: 0; stroke: #008000; stroke-opacity: 0.5"/>
     <use xlink:href="#m8d7b704bf5" x="145.255611" y="126.949914" style="fill-opacity: 0; stroke: #008000; stroke-opacity: 0.5"/>
     <use xlink:href="#m8d7b704bf5" x="148.907928" y="125.332222" style="fill-opacity: 0; stroke: #008000; stroke-opacity: 0.5"/>
     <use xlink:href="#m8d7b704bf5" x="152.560245" y="123.708687" style="fill-opacity: 0; stroke: #008000; stroke-opacity: 0.5"/>
     <use xlink:href="#m8d7b704bf5" x="156.212562" y="122.163815" style="fill-opacity: 0; stroke: #008000; stroke-opacity: 0.5"/>
     <use xlink:href="#m8d7b704bf5" x="159.864879" y="120.758054" style="fill-opacity: 0; stroke: #008000; stroke-opacity: 0.5"/>
     <use xlink:href="#m8d7b704bf5" x="163.517197" y="119.525174" style="fill-opacity: 0; stroke: #008000; stroke-opacity: 0.5"/>
     <use xlink:href="#m8d7b704bf5" x="167.169514" y="118.475781" style="fill-opacity: 0; stroke: #008000; stroke-opacity: 0.5"/>
     <use xlink:href="#m8d7b704bf5" x="170.821831" y="117.604264" style="fill-opacity: 0; stroke: #008000; stroke-opacity: 0.5"/>
     <use xlink:href="#m8d7b704bf5" x="174.474148" y="116.896044" style="fill-opacity: 0; stroke: #008000; stroke-opacity: 0.5"/>
     <use xlink:href="#m8d7b704bf5" x="178.126465" y="116.333253" style="fill-opacity: 0; stroke: #008000; stroke-opacity: 0.5"/>
     <use xlink:href="#m8d7b704bf5" x="181.778782" y="115.898367" style="fill-opacity: 0; stroke: #008000; stroke-opacity: 0.5"/>
     <use xlink:href="#m8d7b704bf5" x="185.431099" y="115.576163" style="fill-opacity: 0; stroke: #008000; stroke-opacity: 0.5"/>
     <use xlink:href="#m8d7b704bf5" x="189.083416" y="115.354595" style="fill-opacity: 0; stroke: #008000; stroke-opacity: 0.5"/>
     <use xlink:href="#m8d7b704bf5" x="192.735734" y="115.225071" style="fill-opacity: 0; stroke: #008000; stroke-opacity: 0.5"/>
     <use xlink:href="#m8d7b704bf5" x="196.388051" y="115.18247" style="fill-opacity: 0; stroke: #008000; stroke-opacity: 0.5"/>
     <use xlink:href="#m8d7b704bf5" x="200.02279" y="115.224544" style="fill-opacity: 0; stroke: #008000; stroke-opacity: 0.5"/>
     <use xlink:href="#m8d7b704bf5" x="203.65753" y="115.350782" style="fill-opacity: 0; stroke: #008000; stroke-opacity: 0.5"/>
     <use xlink:href="#m8d7b704bf5" x="207.29227" y="115.561125" style="fill-opacity: 0; stroke: #008000; stroke-opacity: 0.5"/>
     <use xlink:href="#m8d7b704bf5" x="210.927009" y="115.855378" style="fill-opacity: 0; stroke: #008000; stroke-opacity: 0.5"/>
     <use xlink:href="#m8d7b704bf5" x="214.561749" y="116.233068" style="fill-opacity: 0; stroke: #008000; stroke-opacity: 0.5"/>
     <use xlink:href="#m8d7b704bf5" x="218.196489" y="116.693263" style="fill-opacity: 0; stroke: #008000; stroke-opacity: 0.5"/>
     <use xlink:href="#m8d7b704bf5" x="221.831229" y="117.234355" style="fill-opacity: 0; stroke: #008000; stroke-opacity: 0.5"/>
     <use xlink:href="#m8d7b704bf5" x="225.465968" y="117.853841" style="fill-opacity: 0; stroke: #008000; stroke-opacity: 0.5"/>
     <use xlink:href="#m8d7b704bf5" x="229.100708" y="118.548089" style="fill-opacity: 0; stroke: #008000; stroke-opacity: 0.5"/>
     <use xlink:href="#m8d7b704bf5" x="232.735448" y="119.312136" style="fill-opacity: 0; stroke: #008000; stroke-opacity: 0.5"/>
     <use xlink:href="#m8d7b704bf5" x="236.370187" y="120.139516" style="fill-opacity: 0; stroke: #008000; stroke-opacity: 0.5"/>
     <use xlink:href="#m8d7b704bf5" x="240.004927" y="121.022138" style="fill-opacity: 0; stroke: #008000; stroke-opacity: 0.5"/>
     <use xlink:href="#m8d7b704bf5" x="243.639667" y="121.950229" style="fill-opacity: 0; stroke: #008000; stroke-opacity: 0.5"/>
     <use xlink:href="#m8d7b704bf5" x="247.274406" y="122.912349" style="fill-opacity: 0; stroke: #008000; stroke-opacity: 0.5"/>
     <use xlink:href="#m8d7b704bf5" x="250.909146" y="123.895487" style="fill-opacity: 0; stroke: #008000; stroke-opacity: 0.5"/>
     <use xlink:href="#m8d7b704bf5" x="254.543886" y="124.885235" style="fill-opacity: 0; stroke: #008000; stroke-opacity: 0.5"/>
     <use xlink:href="#m8d7b704bf5" x="258.178625" y="125.866046" style="fill-opacity: 0; stroke: #008000; stroke-opacity: 0.5"/>
     <use xlink:href="#m8d7b704bf5" x="261.813365" y="126.821556" style="fill-opacity: 0; stroke: #008000; stroke-opacity: 0.5"/>
     <use xlink:href="#m8d7b704bf5" x="265.448105" y="127.734978" style="fill-opacity: 0; stroke: #008000; stroke-opacity: 0.5"/>
     <use xlink:href="#m8d7b704bf5" x="269.082845" y="128.589533" style="fill-opacity: 0; stroke: #008000; stroke-opacity: 0.5"/>
     <use xlink:href="#m8d7b704bf5" x="272.717584" y="129.368918" style="fill-opacity: 0; stroke: #008000; stroke-opacity: 0.5"/>
     <use xlink:href="#m8d7b704bf5" x="276.352324" y="130.057781" style="fill-opacity: 0; stroke: #008000; stroke-opacity: 0.5"/>
     <use xlink:href="#m8d7b704bf5" x="279.987064" y="130.642189" style="fill-opacity: 0; stroke: #008000; stroke-opacity: 0.5"/>
     <use xlink:href="#m8d7b704bf5" x="283.621803" y="131.110065" style="fill-opacity: 0; stroke: #008000; stroke-opacity: 0.5"/>
     <use xlink:href="#m8d7b704bf5" x="287.256543" y="131.451575" style="fill-opacity: 0; stroke: #008000; stroke-opacity: 0.5"/>
     <use xlink:href="#m8d7b704bf5" x="290.891283" y="131.659454" style="fill-opacity: 0; stroke: #008000; stroke-opacity: 0.5"/>
     <use xlink:href="#m8d7b704bf5" x="294.526022" y="131.72928" style="fill-opacity: 0; stroke: #008000; stroke-opacity: 0.5"/>
     <use xlink:href="#m8d7b704bf5" x="297.960136" y="131.605022" style="fill-opacity: 0; stroke: #008000; stroke-opacity: 0.5"/>
     <use xlink:href="#m8d7b704bf5" x="301.39425" y="131.232346" style="fill-opacity: 0; stroke: #008000; stroke-opacity: 0.5"/>
     <use xlink:href="#m8d7b704bf5" x="304.828363" y="130.611582" style="fill-opacity: 0; stroke: #008000; stroke-opacity: 0.5"/>
     <use xlink:href="#m8d7b704bf5" x="308.262477" y="129.7434" style="fill-opacity: 0; stroke: #008000; stroke-opacity: 0.5"/>
     <use xlink:href="#m8d7b704bf5" x="311.696591" y="128.628984" style="fill-opacity: 0; stroke: #008000; stroke-opacity: 0.5"/>
     <use xlink:href="#m8d7b704bf5" x="315.130704" y="127.270269" style="fill-opacity: 0; stroke: #008000; stroke-opacity: 0.5"/>
     <use xlink:href="#m8d7b704bf5" x="318.564818" y="125.670212" style="fill-opacity: 0; stroke: #008000; stroke-opacity: 0.5"/>
     <use xlink:href="#m8d7b704bf5" x="321.998932" y="123.833096" style="fill-opacity: 0; stroke: #008000; stroke-opacity: 0.5"/>
     <use xlink:href="#m8d7b704bf5" x="325.433045" y="121.764841" style="fill-opacity: 0; stroke: #008000; stroke-opacity: 0.5"/>
     <use xlink:href="#m8d7b704bf5" x="328.867159" y="119.473298" style="fill-opacity: 0; stroke: #008000; stroke-opacity: 0.5"/>
     <use xlink:href="#m8d7b704bf5" x="332.301273" y="116.968525" style="fill-opacity: 0; stroke: #008000; stroke-opacity: 0.5"/>
     <use xlink:href="#m8d7b704bf5" x="335.735386" y="114.263009" style="fill-opacity: 0; stroke: #008000; stroke-opacity: 0.5"/>
     <use xlink:href="#m8d7b704bf5" x="339.1695" y="111.371839" style="fill-opacity: 0; stroke: #008000; stroke-opacity: 0.5"/>
     <use xlink:href="#m8d7b704bf5" x="342.603613" y="108.312798" style="fill-opacity: 0; stroke: #008000; stroke-opacity: 0.5"/>
     <use xlink:href="#m8d7b704bf5" x="346.037727" y="105.106391" style="fill-opacity: 0; stroke: #008000; stroke-opacity: 0.5"/>
     <use xlink:href="#m8d7b704bf5" x="349.471841" y="101.775794" style="fill-opacity: 0; stroke: #008000; stroke-opacity: 0.5"/>
     <use xlink:href="#m8d7b704bf5" x="352.905954" y="98.346618" style="fill-opacity: 0; stroke: #008000; stroke-opacity: 0.5"/>
     <use xlink:href="#m8d7b704bf5" x="356.340068" y="94.846771" style="fill-opacity: 0; stroke: #008000; stroke-opacity: 0.5"/>
     <use xlink:href="#m8d7b704bf5" x="359.774182" y="91.306141" style="fill-opacity: 0; stroke: #008000; stroke-opacity: 0.5"/>
     <use xlink:href="#m8d7b704bf5" x="363.208295" y="87.756226" style="fill-opacity: 0; stroke: #008000; stroke-opacity: 0.5"/>
     <use xlink:href="#m8d7b704bf5" x="366.642409" y="84.229718" style="fill-opacity: 0; stroke: #008000; stroke-opacity: 0.5"/>
     <use xlink:href="#m8d7b704bf5" x="370.076523" y="80.760049" style="fill-opacity: 0; stroke: #008000; stroke-opacity: 0.5"/>
     <use xlink:href="#m8d7b704bf5" x="373.510636" y="77.380916" style="fill-opacity: 0; stroke: #008000; stroke-opacity: 0.5"/>
     <use xlink:href="#m8d7b704bf5" x="376.94475" y="74.125796" style="fill-opacity: 0; stroke: #008000; stroke-opacity: 0.5"/>
     <use xlink:href="#m8d7b704bf5" x="380.378864" y="71.027455" style="fill-opacity: 0; stroke: #008000; stroke-opacity: 0.5"/>
     <use xlink:href="#m8d7b704bf5" x="383.812977" y="68.117463" style="fill-opacity: 0; stroke: #008000; stroke-opacity: 0.5"/>
     <use xlink:href="#m8d7b704bf5" x="387.247091" y="65.425745" style="fill-opacity: 0; stroke: #008000; stroke-opacity: 0.5"/>
     <use xlink:href="#m8d7b704bf5" x="390.681204" y="62.980186" style="fill-opacity: 0; stroke: #008000; stroke-opacity: 0.5"/>
     <use xlink:href="#m8d7b704bf5" x="394.115318" y="60.806258" style="fill-opacity: 0; stroke: #008000; stroke-opacity: 0.5"/>
     <use xlink:href="#m8d7b704bf5" x="397.549432" y="58.926688" style="fill-opacity: 0; stroke: #008000; stroke-opacity: 0.5"/>
     <use xlink:href="#m8d7b704bf5" x="400.983545" y="57.361176" style="fill-opacity: 0; stroke: #008000; stroke-opacity: 0.5"/>
     <use xlink:href="#m8d7b704bf5" x="404.417659" y="56.126153" style="fill-opacity: 0; stroke: #008000; stroke-opacity: 0.5"/>
     <use xlink:href="#m8d7b704bf5" x="407.851773" y="55.234597" style="fill-opacity: 0; stroke: #008000; stroke-opacity: 0.5"/>
     <use xlink:href="#m8d7b704bf5" x="411.285886" y="54.695877" style="fill-opacity: 0; stroke: #008000; stroke-opacity: 0.5"/>
     <use xlink:href="#m8d7b704bf5" x="414.72" y="54.515657" style="fill-opacity: 0; stroke: #008000; stroke-opacity: 0.5"/>
    </g>
   </g>
   <g id="line2d_33">
    <path d="M 57.6 131.729167 
L 61.455224 131.417692 
L 65.310447 130.492672 
L 69.165671 128.982229 
L 73.020895 126.932255 
L 76.876118 124.405039 
L 80.731342 121.477369 
L 84.586565 118.238201 
L 88.441789 114.785954 
L 92.297013 111.225524 
L 96.152236 107.665093 
L 100.00746 104.212842 
L 103.862684 100.973667 
L 107.717907 98.045988 
L 111.573131 95.518761 
L 115.428354 93.468775 
L 119.283578 91.958317 
L 123.138802 91.033282 
L 126.994025 90.721777 
L 130.646342 90.572637 
L 134.29866 90.119674 
L 137.950977 89.346991 
L 141.603294 88.231044 
L 145.255611 86.745833 
L 148.907928 84.871024 
L 152.560245 82.602275 
L 156.212562 79.96125 
L 159.864879 77.001683 
L 163.517197 73.808879 
L 167.169514 70.492951 
L 170.821831 67.178587 
L 174.474148 63.994544 
L 178.126465 61.064861 
L 181.778782 58.502329 
L 185.431099 56.403931 
L 189.083416 54.847742 
L 192.735734 53.890847 
L 196.388051 53.568 
L 200.02279 53.888093 
L 203.65753 54.841799 
L 207.29227 56.409575 
L 210.927009 58.559543 
L 214.561749 61.248497 
L 218.196489 64.423246 
L 221.831229 68.022246 
L 225.465968 71.977428 
L 229.100708 76.216174 
L 232.735448 80.663319 
L 236.370187 85.243141 
L 240.004927 89.881215 
L 243.639667 94.5061 
L 247.274406 99.050771 
L 250.909146 103.45377 
L 254.543886 107.660034 
L 258.178625 111.621401 
L 261.813365 115.296788 
L 265.448105 118.652076 
L 269.082845 121.659732 
L 272.717584 124.298216 
L 276.352324 126.551243 
L 279.987064 128.406958 
L 283.621803 129.857091 
L 287.256543 130.896165 
L 290.891283 131.520803 
L 294.526022 131.729167 
L 297.960136 131.604913 
L 301.39425 131.232238 
L 304.828363 130.611467 
L 308.262477 129.743267 
L 311.696591 128.628827 
L 315.130704 127.270086 
L 318.564818 125.670005 
L 321.998932 123.832874 
L 325.433045 121.764614 
L 328.867159 119.473078 
L 332.301273 116.968326 
L 335.735386 114.262845 
L 339.1695 111.37172 
L 342.603613 108.312731 
L 346.037727 105.106362 
L 349.471841 101.775724 
L 352.905954 98.346494 
L 356.340068 94.8466 
L 359.774182 91.305936 
L 363.208295 87.756003 
L 366.642409 84.229496 
L 370.076523 80.759845 
L 373.510636 77.38074 
L 376.94475 74.125634 
L 380.378864 71.027261 
L 383.812977 68.117188 
L 387.247091 65.425361 
L 390.681204 62.97968 
L 394.115318 60.805629 
L 397.549432 58.925944 
L 400.983545 57.360332 
L 404.417659 56.125232 
L 407.851773 55.233624 
L 411.285886 54.694883 
L 414.72 54.514676 
" clip-path="url(#p40d077ff88)" style="fill: none; stroke: #008000; stroke-opacity: 0.5; stroke-width: 1.5; stroke-linecap: square"/>
    <g clip-path="url(#p40d077ff88)">
     <use xlink:href="#m8d7b704bf5" x="57.6" y="131.729167" style="fill-opacity: 0; stroke: #008000; stroke-opacity: 0.5"/>
     <use xlink:href="#m8d7b704bf5" x="61.455224" y="131.417692" style="fill-opacity: 0; stroke: #008000; stroke-opacity: 0.5"/>
     <use xlink:href="#m8d7b704bf5" x="65.310447" y="130.492672" style="fill-opacity: 0; stroke: #008000; stroke-opacity: 0.5"/>
     <use xlink:href="#m8d7b704bf5" x="69.165671" y="128.982229" style="fill-opacity: 0; stroke: #008000; stroke-opacity: 0.5"/>
     <use xlink:href="#m8d7b704bf5" x="73.020895" y="126.932255" style="fill-opacity: 0; stroke: #008000; stroke-opacity: 0.5"/>
     <use xlink:href="#m8d7b704bf5" x="76.876118" y="124.405039" style="fill-opacity: 0; stroke: #008000; stroke-opacity: 0.5"/>
     <use xlink:href="#m8d7b704bf5" x="80.731342" y="121.477369" style="fill-opacity: 0; stroke: #008000; stroke-opacity: 0.5"/>
     <use xlink:href="#m8d7b704bf5" x="84.586565" y="118.238201" style="fill-opacity: 0; stroke: #008000; stroke-opacity: 0.5"/>
     <use xlink:href="#m8d7b704bf5" x="88.441789" y="114.785954" style="fill-opacity: 0; stroke: #008000; stroke-opacity: 0.5"/>
     <use xlink:href="#m8d7b704bf5" x="92.297013" y="111.225524" style="fill-opacity: 0; stroke: #008000; stroke-opacity: 0.5"/>
     <use xlink:href="#m8d7b704bf5" x="96.152236" y="107.665093" style="fill-opacity: 0; stroke: #008000; stroke-opacity: 0.5"/>
     <use xlink:href="#m8d7b704bf5" x="100.00746" y="104.212842" style="fill-opacity: 0; stroke: #008000; stroke-opacity: 0.5"/>
     <use xlink:href="#m8d7b704bf5" x="103.862684" y="100.973667" style="fill-opacity: 0; stroke: #008000; stroke-opacity: 0.5"/>
     <use xlink:href="#m8d7b704bf5" x="107.717907" y="98.045988" style="fill-opacity: 0; stroke: #008000; stroke-opacity: 0.5"/>
     <use xlink:href="#m8d7b704bf5" x="111.573131" y="95.518761" style="fill-opacity: 0; stroke: #008000; stroke-opacity: 0.5"/>
     <use xlink:href="#m8d7b704bf5" x="115.428354" y="93.468775" style="fill-opacity: 0; stroke: #008000; stroke-opacity: 0.5"/>
     <use xlink:href="#m8d7b704bf5" x="119.283578" y="91.958317" style="fill-opacity: 0; stroke: #008000; stroke-opacity: 0.5"/>
     <use xlink:href="#m8d7b704bf5" x="123.138802" y="91.033282" style="fill-opacity: 0; stroke: #008000; stroke-opacity: 0.5"/>
     <use xlink:href="#m8d7b704bf5" x="126.994025" y="90.721777" style="fill-opacity: 0; stroke: #008000; stroke-opacity: 0.5"/>
     <use xlink:href="#m8d7b704bf5" x="130.646342" y="90.572637" style="fill-opacity: 0; stroke: #008000; stroke-opacity: 0.5"/>
     <use xlink:href="#m8d7b704bf5" x="134.29866" y="90.119674" style="fill-opacity: 0; stroke: #008000; stroke-opacity: 0.5"/>
     <use xlink:href="#m8d7b704bf5" x="137.950977" y="89.346991" style="fill-opacity: 0; stroke: #008000; stroke-opacity: 0.5"/>
     <use xlink:href="#m8d7b704bf5" x="141.603294" y="88.231044" style="fill-opacity: 0; stroke: #008000; stroke-opacity: 0.5"/>
     <use xlink:href="#m8d7b704bf5" x="145.255611" y="86.745833" style="fill-opacity: 0; stroke: #008000; stroke-opacity: 0.5"/>
     <use xlink:href="#m8d7b704bf5" x="148.907928" y="84.871024" style="fill-opacity: 0; stroke: #008000; stroke-opacity: 0.5"/>
     <use xlink:href="#m8d7b704bf5" x="152.560245" y="82.602275" style="fill-opacity: 0; stroke: #008000; stroke-opacity: 0.5"/>
     <use xlink:href="#m8d7b704bf5" x="156.212562" y="79.96125" style="fill-opacity: 0; stroke: #008000; stroke-opacity: 0.5"/>
     <use xlink:href="#m8d7b704bf5" x="159.864879" y="77.001683" style="fill-opacity: 0; stroke: #008000; stroke-opacity: 0.5"/>
     <use xlink:href="#m8d7b704bf5" x="163.517197" y="73.808879" style="fill-opacity: 0; stroke: #008000; stroke-opacity: 0.5"/>
     <use xlink:href="#m8d7b704bf5" x="167.169514" y="70.492951" style="fill-opacity: 0; stroke: #008000; stroke-opacity: 0.5"/>
     <use xlink:href="#m8d7b704bf5" x="170.821831" y="67.178587" style="fill-opacity: 0; stroke: #008000; stroke-opacity: 0.5"/>
     <use xlink:href="#m8d7b704bf5" x="174.474148" y="63.994544" style="fill-opacity: 0; stroke: #008000; stroke-opacity: 0.5"/>
     <use xlink:href="#m8d7b704bf5" x="178.126465" y="61.064861" style="fill-opacity: 0; stroke: #008000; stroke-opacity: 0.5"/>
     <use xlink:href="#m8d7b704bf5" x="181.778782" y="58.502329" style="fill-opacity: 0; stroke: #008000; stroke-opacity: 0.5"/>
     <use xlink:href="#m8d7b704bf5" x="185.431099" y="56.403931" style="fill-opacity: 0; stroke: #008000; stroke-opacity: 0.5"/>
     <use xlink:href="#m8d7b704bf5" x="189.083416" y="54.847742" style="fill-opacity: 0; stroke: #008000; stroke-opacity: 0.5"/>
     <use xlink:href="#m8d7b704bf5" x="192.735734" y="53.890847" style="fill-opacity: 0; stroke: #008000; stroke-opacity: 0.5"/>
     <use xlink:href="#m8d7b704bf5" x="196.388051" y="53.568" style="fill-opacity: 0; stroke: #008000; stroke-opacity: 0.5"/>
     <use xlink:href="#m8d7b704bf5" x="200.02279" y="53.888093" style="fill-opacity: 0; stroke: #008000; stroke-opacity: 0.5"/>
     <use xlink:href="#m8d7b704bf5" x="203.65753" y="54.841799" style="fill-opacity: 0; stroke: #008000; stroke-opacity: 0.5"/>
     <use xlink:href="#m8d7b704bf5" x="207.29227" y="56.409575" style="fill-opacity: 0; stroke: #008000; stroke-opacity: 0.5"/>
     <use xlink:href="#m8d7b704bf5" x="210.927009" y="58.559543" style="fill-opacity: 0; stroke: #008000; stroke-opacity: 0.5"/>
     <use xlink:href="#m8d7b704bf5" x="214.561749" y="61.248497" style="fill-opacity: 0; stroke: #008000; stroke-opacity: 0.5"/>
     <use xlink:href="#m8d7b704bf5" x="218.196489" y="64.423246" style="fill-opacity: 0; stroke: #008000; stroke-opacity: 0.5"/>
     <use xlink:href="#m8d7b704bf5" x="221.831229" y="68.022246" style="fill-opacity: 0; stroke: #008000; stroke-opacity: 0.5"/>
     <use xlink:href="#m8d7b704bf5" x="225.465968" y="71.977428" style="fill-opacity: 0; stroke: #008000; stroke-opacity: 0.5"/>
     <use xlink:href="#m8d7b704bf5" x="229.100708" y="76.216174" style="fill-opacity: 0; stroke: #008000; stroke-opacity: 0.5"/>
     <use xlink:href="#m8d7b704bf5" x="232.735448" y="80.663319" style="fill-opacity: 0; stroke: #008000; stroke-opacity: 0.5"/>
     <use xlink:href="#m8d7b704bf5" x="236.370187" y="85.243141" style="fill-opacity: 0; stroke: #008000; stroke-opacity: 0.5"/>
     <use xlink:href="#m8d7b704bf5" x="240.004927" y="89.881215" style="fill-opacity: 0; stroke: #008000; stroke-opacity: 0.5"/>
     <use xlink:href="#m8d7b704bf5" x="243.639667" y="94.5061" style="fill-opacity: 0; stroke: #008000; stroke-opacity: 0.5"/>
     <use xlink:href="#m8d7b704bf5" x="247.274406" y="99.050771" style="fill-opacity: 0; stroke: #008000; stroke-opacity: 0.5"/>
     <use xlink:href="#m8d7b704bf5" x="250.909146" y="103.45377" style="fill-opacity: 0; stroke: #008000; stroke-opacity: 0.5"/>
     <use xlink:href="#m8d7b704bf5" x="254.543886" y="107.660034" style="fill-opacity: 0; stroke: #008000; stroke-opacity: 0.5"/>
     <use xlink:href="#m8d7b704bf5" x="258.178625" y="111.621401" style="fill-opacity: 0; stroke: #008000; stroke-opacity: 0.5"/>
     <use xlink:href="#m8d7b704bf5" x="261.813365" y="115.296788" style="fill-opacity: 0; stroke: #008000; stroke-opacity: 0.5"/>
     <use xlink:href="#m8d7b704bf5" x="265.448105" y="118.652076" style="fill-opacity: 0; stroke: #008000; stroke-opacity: 0.5"/>
     <use xlink:href="#m8d7b704bf5" x="269.082845" y="121.659732" style="fill-opacity: 0; stroke: #008000; stroke-opacity: 0.5"/>
     <use xlink:href="#m8d7b704bf5" x="272.717584" y="124.298216" style="fill-opacity: 0; stroke: #008000; stroke-opacity: 0.5"/>
     <use xlink:href="#m8d7b704bf5" x="276.352324" y="126.551243" style="fill-opacity: 0; stroke: #008000; stroke-opacity: 0.5"/>
     <use xlink:href="#m8d7b704bf5" x="279.987064" y="128.406958" style="fill-opacity: 0; stroke: #008000; stroke-opacity: 0.5"/>
     <use xlink:href="#m8d7b704bf5" x="283.621803" y="129.857091" style="fill-opacity: 0; stroke: #008000; stroke-opacity: 0.5"/>
     <use xlink:href="#m8d7b704bf5" x="287.256543" y="130.896165" style="fill-opacity: 0; stroke: #008000; stroke-opacity: 0.5"/>
     <use xlink:href="#m8d7b704bf5" x="290.891283" y="131.520803" style="fill-opacity: 0; stroke: #008000; stroke-opacity: 0.5"/>
     <use xlink:href="#m8d7b704bf5" x="294.526022" y="131.729167" style="fill-opacity: 0; stroke: #008000; stroke-opacity: 0.5"/>
     <use xlink:href="#m8d7b704bf5" x="297.960136" y="131.604913" style="fill-opacity: 0; stroke: #008000; stroke-opacity: 0.5"/>
     <use xlink:href="#m8d7b704bf5" x="301.39425" y="131.232238" style="fill-opacity: 0; stroke: #008000; stroke-opacity: 0.5"/>
     <use xlink:href="#m8d7b704bf5" x="304.828363" y="130.611467" style="fill-opacity: 0; stroke: #008000; stroke-opacity: 0.5"/>
     <use xlink:href="#m8d7b704bf5" x="308.262477" y="129.743267" style="fill-opacity: 0; stroke: #008000; stroke-opacity: 0.5"/>
     <use xlink:href="#m8d7b704bf5" x="311.696591" y="128.628827" style="fill-opacity: 0; stroke: #008000; stroke-opacity: 0.5"/>
     <use xlink:href="#m8d7b704bf5" x="315.130704" y="127.270086" style="fill-opacity: 0; stroke: #008000; stroke-opacity: 0.5"/>
     <use xlink:href="#m8d7b704bf5" x="318.564818" y="125.670005" style="fill-opacity: 0; stroke: #008000; stroke-opacity: 0.5"/>
     <use xlink:href="#m8d7b704bf5" x="321.998932" y="123.832874" style="fill-opacity: 0; stroke: #008000; stroke-opacity: 0.5"/>
     <use xlink:href="#m8d7b704bf5" x="325.433045" y="121.764614" style="fill-opacity: 0; stroke: #008000; stroke-opacity: 0.5"/>
     <use xlink:href="#m8d7b704bf5" x="328.867159" y="119.473078" style="fill-opacity: 0; stroke: #008000; stroke-opacity: 0.5"/>
     <use xlink:href="#m8d7b704bf5" x="332.301273" y="116.968326" style="fill-opacity: 0; stroke: #008000; stroke-opacity: 0.5"/>
     <use xlink:href="#m8d7b704bf5" x="335.735386" y="114.262845" style="fill-opacity: 0; stroke: #008000; stroke-opacity: 0.5"/>
     <use xlink:href="#m8d7b704bf5" x="339.1695" y="111.37172" style="fill-opacity: 0; stroke: #008000; stroke-opacity: 0.5"/>
     <use xlink:href="#m8d7b704bf5" x="342.603613" y="108.312731" style="fill-opacity: 0; stroke: #008000; stroke-opacity: 0.5"/>
     <use xlink:href="#m8d7b704bf5" x="346.037727" y="105.106362" style="fill-opacity: 0; stroke: #008000; stroke-opacity: 0.5"/>
     <use xlink:href="#m8d7b704bf5" x="349.471841" y="101.775724" style="fill-opacity: 0; stroke: #008000; stroke-opacity: 0.5"/>
     <use xlink:href="#m8d7b704bf5" x="352.905954" y="98.346494" style="fill-opacity: 0; stroke: #008000; stroke-opacity: 0.5"/>
     <use xlink:href="#m8d7b704bf5" x="356.340068" y="94.8466" style="fill-opacity: 0; stroke: #008000; stroke-opacity: 0.5"/>
     <use xlink:href="#m8d7b704bf5" x="359.774182" y="91.305936" style="fill-opacity: 0; stroke: #008000; stroke-opacity: 0.5"/>
     <use xlink:href="#m8d7b704bf5" x="363.208295" y="87.756003" style="fill-opacity: 0; stroke: #008000; stroke-opacity: 0.5"/>
     <use xlink:href="#m8d7b704bf5" x="366.642409" y="84.229496" style="fill-opacity: 0; stroke: #008000; stroke-opacity: 0.5"/>
     <use xlink:href="#m8d7b704bf5" x="370.076523" y="80.759845" style="fill-opacity: 0; stroke: #008000; stroke-opacity: 0.5"/>
     <use xlink:href="#m8d7b704bf5" x="373.510636" y="77.38074" style="fill-opacity: 0; stroke: #008000; stroke-opacity: 0.5"/>
     <use xlink:href="#m8d7b704bf5" x="376.94475" y="74.125634" style="fill-opacity: 0; stroke: #008000; stroke-opacity: 0.5"/>
     <use xlink:href="#m8d7b704bf5" x="380.378864" y="71.027261" style="fill-opacity: 0; stroke: #008000; stroke-opacity: 0.5"/>
     <use xlink:href="#m8d7b704bf5" x="383.812977" y="68.117188" style="fill-opacity: 0; stroke: #008000; stroke-opacity: 0.5"/>
     <use xlink:href="#m8d7b704bf5" x="387.247091" y="65.425361" style="fill-opacity: 0; stroke: #008000; stroke-opacity: 0.5"/>
     <use xlink:href="#m8d7b704bf5" x="390.681204" y="62.97968" style="fill-opacity: 0; stroke: #008000; stroke-opacity: 0.5"/>
     <use xlink:href="#m8d7b704bf5" x="394.115318" y="60.805629" style="fill-opacity: 0; stroke: #008000; stroke-opacity: 0.5"/>
     <use xlink:href="#m8d7b704bf5" x="397.549432" y="58.925944" style="fill-opacity: 0; stroke: #008000; stroke-opacity: 0.5"/>
     <use xlink:href="#m8d7b704bf5" x="400.983545" y="57.360332" style="fill-opacity: 0; stroke: #008000; stroke-opacity: 0.5"/>
     <use xlink:href="#m8d7b704bf5" x="404.417659" y="56.125232" style="fill-opacity: 0; stroke: #008000; stroke-opacity: 0.5"/>
     <use xlink:href="#m8d7b704bf5" x="407.851773" y="55.233624" style="fill-opacity: 0; stroke: #008000; stroke-opacity: 0.5"/>
     <use xlink:href="#m8d7b704bf5" x="411.285886" y="54.694883" style="fill-opacity: 0; stroke: #008000; stroke-opacity: 0.5"/>
     <use xlink:href="#m8d7b704bf5" x="414.72" y="54.514676" style="fill-opacity: 0; stroke: #008000; stroke-opacity: 0.5"/>
    </g>
   </g>
   <g id="line2d_34">
    <path d="M 57.6 307.584 
L 57.6 41.472 
" clip-path="url(#p40d077ff88)" style="fill: none; stroke: #808080; stroke-width: 0.6; stroke-linecap: square"/>
   </g>
   <g id="line2d_35">
    <path d="M 126.994025 307.584 
L 126.994025 41.472 
" clip-path="url(#p40d077ff88)" style="fill: none; stroke: #808080; stroke-width: 0.6; stroke-linecap: square"/>
   </g>
   <g id="line2d_36">
    <path d="M 196.388051 307.584 
L 196.388051 41.472 
" clip-path="url(#p40d077ff88)" style="fill: none; stroke: #808080; stroke-width: 0.6; stroke-linecap: square"/>
   </g>
   <g id="line2d_37">
    <path d="M 294.526022 307.584 
L 294.526022 41.472 
" clip-path="url(#p40d077ff88)" style="fill: none; stroke: #808080; stroke-width: 0.6; stroke-linecap: square"/>
   </g>
   <g id="line2d_38">
    <path d="M 414.72 307.584 
L 414.72 41.472 
" clip-path="url(#p40d077ff88)" style="fill: none; stroke: #808080; stroke-width: 0.6; stroke-linecap: square"/>
   </g>
   <g id="patch_3">
    <path d="M 57.6 307.584 
L 57.6 41.472 
" style="fill: none; stroke: #000000; stroke-width: 0.8; stroke-linejoin: miter; stroke-linecap: square"/>
   </g>
   <g id="patch_4">
    <path d="M 414.72 307.584 
L 414.72 41.472 
" style="fill: none; stroke: #000000; stroke-width: 0.8; stroke-linejoin: miter; stroke-linecap: square"/>
   </g>
   <g id="patch_5">
    <path d="M 57.6 307.584 
L 414.72 307.584 
" style="fill: none; stroke: #000000; stroke-width: 0.8; stroke-linejoin: miter; stroke-linecap: square"/>
   </g>
   <g id="patch_6">
    <path d="M 57.6 41.472 
L 414.72 41.472 
" style="fill: none; stroke: #000000; stroke-width: 0.8; stroke-linejoin: miter; stroke-linecap: square"/>
   </g>
  </g>
 </g>
 <defs>
  <clipPath id="p40d077ff88">
   <rect x="57.6" y="41.472" width="357.12" height="266.112"/>
  </clipPath>
 </defs>
</svg>
